<?xml version="1.0" encoding="UTF-8"?><svg id="Layer_1" xmlns="http://www.w3.org/2000/svg" viewBox="0 0 310.46 422.34"><path d="M118.2,397.97c-.18,0-.35,0-.53-.02-2.72-.17-5.2-1.65-6.63-3.97l-9.88-15.92-13.87,16.84c-1.73,2.1-4.4,3.24-7.11,3.05-2.72-.2-5.19-1.71-6.6-4.04l-9.61-15.84-14.14,16.88c-1.75,2.09-4.43,3.21-7.14,2.99-2.72-.22-5.17-1.76-6.56-4.1l-9.22-15.56-12.06,15.83c-2.31,2.72-5.98,3.68-9.33,2.44-3.35-1.23-5.52-4.34-5.52-7.91V10C0,6.53,2.08,3.46,5.3,2.17c3.22-1.29,6.85-.49,9.23,2.02l.3.34,14.17,17.59,10.24-18.1C40.82,1.46,43.54-.06,46.57,0c2.86.05,5.42,1.48,6.95,3.86l13.17,17.19,10.08-16.94c1.54-2.58,4.24-4.12,7.24-4.12h.03c3.01.01,5.72,1.57,7.24,4.17l9.57,16.37,9.43-16.33C111.79,1.6,114.49.03,117.5,0c.03,0,.05,0,.08,0,2.98,0,5.67,1.52,7.21,4.08l9.92,16.46,9.09-16.23C145.27,1.68,147.95.07,150.97,0c3-.07,5.76,1.42,7.35,3.98l10.26,16.55,8.75-16.12c1.44-2.65,4.1-4.3,7.11-4.4,3.04-.11,5.78,1.35,7.4,3.89l11.57,18.15,13.04-16.3c2.27-2.83,5.94-3.89,9.37-2.69,3.42,1.2,5.64,4.32,5.64,7.95v239.66c0,3.04-2.46,5.5-5.5,5.5s-5.5-2.46-5.5-5.5V18.35l-10.7,13.38c-1.69,2.12-4.31,3.29-7.03,3.15-2.71-.15-5.2-1.6-6.66-3.88l-11.15-17.5-8.78,16.18c-1.43,2.63-4.17,4.32-7.16,4.41s-5.83-1.44-7.41-3.98l-10.29-16.6-9.12,16.28c-1.46,2.61-4.23,4.26-7.22,4.31-2.99.06-5.81-1.52-7.35-4.08l-9.95-16.52-9.46,16.38c-1.5,2.59-4.28,4.2-7.27,4.21h-.02c-2.98,0-5.77-1.6-7.27-4.17l-9.61-16.42-9.8,16.48c-1.51,2.55-4.28,4.12-7.24,4.12-.03,0-.06,0-.09,0-2.83-.03-5.47-1.5-6.99-3.86l-13.12-17.12-10.18,18c-1.38,2.25-3.68,3.7-6.3,3.98-2.62.28-5.17-.66-6.99-2.58l-.3-.34-11.97-14.86v363.68l9.75-12.8c1.76-2.07,4.42-3.16,7.13-2.93,2.71.23,5.15,1.76,6.53,4.1l9.32,15.73,14.12-16.85c1.74-2.08,4.4-3.2,7.1-2.99,2.7.21,5.16,1.71,6.56,4.03l9.59,15.81,13.85-16.81c1.72-2.09,4.36-3.22,7.07-3.05,2.7.18,5.17,1.66,6.6,3.97l9.86,15.89,13.58-16.76c1.71-2.1,4.34-3.25,7.04-3.11,2.66.15,5.1,1.57,6.56,3.79l13.02,18.96c1.72,2.5,1.08,5.93-1.42,7.65-2.51,1.72-5.93,1.08-7.65-1.42l-11.18-16.27-13.69,16.89c-1.6,1.98-4.02,3.12-6.55,3.12Z" style="fill:#1f252e;"/><path d="M143.22,83.62H34.32c-3.04,0-5.5-2.46-5.5-5.5s2.46-5.5,5.5-5.5h108.91c3.04,0,5.5,2.46,5.5,5.5s-2.46,5.5-5.5,5.5Z" style="fill:#5c6f8a;"/><path d="M172.28,130.87H34.32c-3.04,0-5.5-2.46-5.5-5.5s2.46-5.5,5.5-5.5h137.96c3.04,0,5.5,2.46,5.5,5.5s-2.46,5.5-5.5,5.5Z" style="fill:#5c6f8a;"/><path d="M143.22,178.12H34.32c-3.04,0-5.5-2.46-5.5-5.5s2.46-5.5,5.5-5.5h108.91c3.04,0,5.5,2.46,5.5,5.5s-2.46,5.5-5.5,5.5Z" style="fill:#5c6f8a;"/><path d="M172.28,225.38H34.32c-3.04,0-5.5-2.46-5.5-5.5s2.46-5.5,5.5-5.5h137.96c3.04,0,5.5,2.46,5.5,5.5s-2.46,5.5-5.5,5.5Z" style="fill:#5c6f8a;"/><rect x="43.23" y="286.16" width="11" height="46.11" style="fill:#5c6f8a;"/><rect x="59.08" y="286.16" width="11" height="46.11" style="fill:#5c6f8a;"/><rect x="77.57" y="286.16" width="11" height="46.11" style="fill:#5c6f8a;"/><rect x="93.42" y="286.16" width="11" height="46.11" style="fill:#5c6f8a;"/><rect x="113.23" y="286.16" width="11" height="46.11" style="fill:#5c6f8a;"/><rect x="129.08" y="286.16" width="11" height="46.11" style="fill:#5c6f8a;"/><rect x="146.25" y="286.16" width="11" height="16.11" style="fill:#5c6f8a;"/><path d="M224.78,250.97c-47.25,0-85.68,38.44-85.68,85.68s38.44,85.68,85.68,85.68,85.68-38.44,85.68-85.68-38.44-85.68-85.68-85.68ZM224.78,411.34c-41.18,0-74.68-33.5-74.68-74.68s33.5-74.68,74.68-74.68,74.68,33.5,74.68,74.68-33.5,74.68-74.68,74.68Z" style="fill:#f02a26;"/><path d="M255.13,310.4c-2.15-2.15-5.63-2.15-7.78,0l-22.02,22.02-22.02-22.02c-2.15-2.15-5.63-2.15-7.78,0-2.15,2.15-2.15,5.63,0,7.78l22.02,22.02-22.02,22.02c-2.15,2.15-2.15,5.63,0,7.78,1.07,1.07,2.48,1.61,3.89,1.61s2.82-.54,3.89-1.61l22.02-22.02,22.02,22.02c1.07,1.07,2.48,1.61,3.89,1.61s2.82-.54,3.89-1.61c2.15-2.15,2.15-5.63,0-7.78l-22.02-22.02,22.02-22.02c2.15-2.15,2.15-5.63,0-7.78Z" style="fill:#f02a26;"/></svg>