<?xml version="1.0" encoding="UTF-8"?><svg id="Layer_1" xmlns="http://www.w3.org/2000/svg" viewBox="0 0 299 299"><path d="M122.94,198.07c-5.19,0-10.33-1.97-14.25-5.9l-.3-.32-32.9-38.64c-1.97-2.31-1.69-5.78.62-7.75,2.31-1.97,5.78-1.69,7.75.62l32.75,38.46c3.66,3.52,9.33,3.42,13.25-.26l85.67-81.84c2.2-2.1,5.68-2.02,7.78.18,2.1,2.2,2.02,5.68-.18,7.78l-85.7,81.88c-4.13,3.88-9.33,5.81-14.48,5.81Z" style="fill:#00996e;"/><path d="M149.5,299C67.07,299,0,231.93,0,149.5S67.07,0,149.5,0s149.5,67.07,149.5,149.5-67.07,149.5-149.5,149.5ZM149.5,11C73.13,11,11,73.13,11,149.5s62.13,138.5,138.5,138.5,138.5-62.13,138.5-138.5S225.87,11,149.5,11Z" style="fill:#00996e;"/></svg>