<?xml version="1.0" encoding="UTF-8"?><svg id="Layer_1" xmlns="http://www.w3.org/2000/svg" viewBox="0 0 335 335"><path d="M167.5,0C75.14,0,0,75.14,0,167.5s75.14,167.5,167.5,167.5,167.5-75.14,167.5-167.5S259.86,0,167.5,0ZM167.5,324c-86.29,0-156.5-70.21-156.5-156.5S81.21,11,167.5,11s156.5,70.21,156.5,156.5-70.21,156.5-156.5,156.5Z" style="fill:#5c6f8a;"/><path d="M236.41,162h-62.26v-62.26c0-3.04-2.46-5.5-5.5-5.5s-5.5,2.46-5.5,5.5v62.26h-62.27c-3.04,0-5.5,2.46-5.5,5.5s2.46,5.5,5.5,5.5h62.27v62.26c0,3.04,2.46,5.5,5.5,5.5s5.5-2.46,5.5-5.5v-62.26h62.26c3.04,0,5.5-2.46,5.5-5.5s-2.46-5.5-5.5-5.5Z" style="fill:#5c6f8a;"/></svg>