<?xml version="1.0" encoding="UTF-8"?><svg id="Layer_1" xmlns="http://www.w3.org/2000/svg" viewBox="0 0 287 201.07"><path d="M281.5,11H93.3c-3.04,0-5.5-2.46-5.5-5.5s2.46-5.5,5.5-5.5h188.2c3.04,0,5.5,2.46,5.5,5.5s-2.46,5.5-5.5,5.5Z" style="fill:#5c6f8a;"/><path d="M19.51,11H5.5c-3.04,0-5.5-2.46-5.5-5.5S2.46,0,5.5,0h14.01c3.04,0,5.5,2.46,5.5,5.5s-2.46,5.5-5.5,5.5Z" style="fill:#5c6f8a;"/><path d="M281.5,106.04H93.3c-3.04,0-5.5-2.46-5.5-5.5s2.46-5.5,5.5-5.5h188.2c3.04,0,5.5,2.46,5.5,5.5s-2.46,5.5-5.5,5.5Z" style="fill:#5c6f8a;"/><path d="M19.51,103.47H5.5c-3.04,0-5.5-2.46-5.5-5.5s2.46-5.5,5.5-5.5h14.01c3.04,0,5.5,2.46,5.5,5.5s-2.46,5.5-5.5,5.5Z" style="fill:#5c6f8a;"/><path d="M281.5,201.07H93.3c-3.04,0-5.5-2.46-5.5-5.5s2.46-5.5,5.5-5.5h188.2c3.04,0,5.5,2.46,5.5,5.5s-2.46,5.5-5.5,5.5Z" style="fill:#5c6f8a;"/><path d="M19.51,201.07H5.5c-3.04,0-5.5-2.46-5.5-5.5s2.46-5.5,5.5-5.5h14.01c3.04,0,5.5,2.46,5.5,5.5s-2.46,5.5-5.5,5.5Z" style="fill:#5c6f8a;"/></svg>