<?xml version="1.0" encoding="UTF-8"?><svg id="Layer_1" xmlns="http://www.w3.org/2000/svg" viewBox="0 0 399.55 469.54"><path d="M112.43,191.35c-3.04,0-5.5-2.46-5.5-5.5V50.99c-.01-1.59-.92-39.45-51.35-39.45-12.81,0-22.78,4.03-29.64,11.97-12.51,14.5-12.36,38.37-11.66,48.42h67.74c3.04,0,5.5,2.46,5.5,5.5s-2.46,5.5-5.5,5.5H4.55l-.7-4.69c-.24-1.6-5.59-39.5,13.75-61.92C26.65,5.85,39.42.54,55.57.54c31.87,0,47.17,13.62,54.39,25.04,7.87,12.44,7.96,24.89,7.96,25.42v134.86c0,3.04-2.46,5.5-5.5,5.5Z" style="fill:#fff;"/><path d="M198.45,469.54l-30.62-26.62-27.62,22.36-31.96-25.57v-56.85c0-3.04,2.46-5.5,5.5-5.5s5.5,2.46,5.5,5.5v51.56l20.92,16.74,27.91-22.6,30.2,26.26,29.15-26.5,26.52,23.87,30.52-26.53,27.68,26.36,30.41-27.76,26.37,25.06,19.62-18.58V65.62c-.03-.89-.56-13.86-5.52-26.81-6.42-16.73-17.06-25.7-31.64-26.64-40.31-2.6-276.33-.02-278.71.01-.02,0-.04,0-.06,0-3.01,0-5.47-2.42-5.5-5.44-.03-3.04,2.4-5.53,5.44-5.56,9.73-.11,238.82-2.62,279.54.01,19.07,1.23,33.36,12.97,41.31,33.96,5.72,15.09,6.13,29.64,6.14,30.26v.13s0,369.92,0,369.92l-30.63,29.01-26.51-25.19-30.42,27.77-27.85-26.53-30.3,26.35-26.36-23.72-29.02,26.39Z" style="fill:#fff;"/><path d="M341.16,90.87h-178.49c-3.04,0-5.5-2.46-5.5-5.5s2.46-5.5,5.5-5.5h178.49c3.04,0,5.5,2.46,5.5,5.5s-2.46,5.5-5.5,5.5Z" style="fill:#fff;"/><path d="M291.16,149.12h-128.49c-3.04,0-5.5-2.46-5.5-5.5s2.46-5.5,5.5-5.5h128.49c3.04,0,5.5,2.46,5.5,5.5s-2.46,5.5-5.5,5.5Z" style="fill:#fff;"/><path d="M317.16,205.61h-154.49c-3.04,0-5.5-2.46-5.5-5.5s2.46-5.5,5.5-5.5h154.49c3.04,0,5.5,2.46,5.5,5.5s-2.46,5.5-5.5,5.5Z" style="fill:#fff;"/><path d="M70.68,366.13c-3.35,0-6.47-1.23-8.84-3.51-2.53-2.43-3.96-5.9-3.93-9.52.03-3.2-1.71-6.19-4.64-7.99-3.03-1.86-6.6-2.06-9.56-.52-.78.4-1.65,1.14-2.39,1.81-5.36,4.81-11.85,4.64-16.94-.45l-2.08-2.08c-1.69-1.68-3.37-3.36-5.04-5.06-5.55-5.65-5.55-13.31,0-19.06l.64-.66c1.05-1.07,2.14-2.18,2.57-3.06,1.12-2.3.34-4.21-.23-5.15-1.06-1.74-2.96-2.82-5.09-2.88h-.31c-.61-.03-1.19-.05-1.61,0-3.32.31-6.66-.79-9.17-3.04-2.48-2.22-3.94-5.36-4-8.62-.07-4.02-.12-8.69.15-13.34.35-5.8,5.26-10.41,11.43-10.72.38-.02.75-.03,1.13-.05,1.34-.05,2.61-.1,3.5-.36,2.49-.71,4.4-2.71,5.11-5.35.72-2.7.05-5.45-1.79-7.35-.3-.31-.61-.61-.92-.92-.47-.46-.93-.92-1.38-1.39-5.11-5.4-5.17-13.54-.15-18.92,2.02-2.17,4.24-4.39,6.59-6.6,5.17-4.88,13.11-4.95,18.46-.17.67.6,1.28,1.22,1.81,1.76.25.26.5.51.76.76,2.4,2.34,5.44,2.94,8.35,1.63,3.33-1.5,4.8-3.68,4.9-7.28,0-.26,0-.51,0-.77-.01-.99-.02-2.21.28-3.58,1.21-5.49,6.05-9.39,11.79-9.49,1.37-.02,2.75-.02,4.12-.01h1.75s1.59,0,1.59,0c1.33,0,2.66-.01,3.99.01,6.87.12,12.12,5.41,12.21,12.29v1c.01,1.17.02,2.29.17,3.18.36,2.18,1.47,3.44,3.71,4.21,2.17.75,3.81.44,5.46-1.04.5-.45,1.02-.97,1.56-1.52.41-.41.82-.82,1.23-1.22,5.27-5.06,12.88-5.09,18.09-.09,2.59,2.49,5.28,5.17,8.21,8.21,2.26,2.33,3.46,5.31,3.4,8.39-.07,3.01-1.35,5.85-3.62,8-3.57,3.38-3.6,9.26-.08,13.39,1.86,2.18,4.13,3.22,7.14,3.28,7.77.16,12.76,5.29,12.72,13.06,0,.9,0,1.8,0,2.7,0,2.99,0,6.09-.23,9.22-.46,6.13-5.55,10.72-11.85,10.72-.12,0-.24,0-.35,0-2.8,0-4.44.38-5.8,1.32-2,1.39-3.21,3.45-3.43,5.8-.21,2.31.59,4.52,2.26,6.21,4.7,4.75,4.74,11.12.1,15.84-3.33,3.39-6.67,6.72-9.51,9.53-4.81,4.77-11.03,4.79-15.84.07-1.83-1.79-4.25-2.64-6.65-2.31-2.43.33-4.48,1.74-5.78,3.98-.61,1.06-.92,2.26-.93,3.68,0,.22,0,.45,0,.68.01,1.03.03,2.32-.27,3.73-1.15,5.49-6.19,9.51-11.97,9.58-1.35.01-2.71,0-4.06-.02-2.12-.02-4.11-.05-6.08.05-.22,0-.44.02-.66.02ZM47.95,332.56c3.81,0,7.63,1.07,11.08,3.19,6.25,3.84,9.94,10.36,9.89,17.45,0,.61.19,1.15.56,1.5.33.32.78.46,1.34.43,2.3-.11,4.56-.08,6.74-.06,1.27.02,2.54.03,3.81.02.64,0,1.22-.37,1.32-.84.05-.23.04-.88.04-1.35,0-.3,0-.61,0-.91.03-3.33.84-6.39,2.42-9.1,3-5.17,8.04-8.59,13.83-9.37,5.8-.78,11.57,1.17,15.84,5.37.06.06.12.12.18.17.06-.05.13-.12.21-.19,2.81-2.79,6.12-6.08,9.41-9.43.06-.06.1-.11.14-.16-.06-.07-.13-.15-.22-.24-3.93-3.98-5.9-9.43-5.39-14.95.51-5.56,3.46-10.6,8.1-13.82,4.27-2.97,8.88-3.31,12.42-3.29.31,0,.86-.06.9-.54.2-2.71.2-5.47.2-8.38,0-.93,0-1.86,0-2.79.01-1.78-.17-1.96-1.95-2-6.12-.13-11.4-2.6-15.27-7.14-7.33-8.58-6.94-21.11.88-28.52.14-.14.19-.23.19-.25,0-.05-.05-.24-.3-.5-2.84-2.94-5.44-5.53-7.93-7.92-.68-.65-1.55-1.15-2.86.1-.35.34-.7.69-1.04,1.03-.64.64-1.29,1.3-2.04,1.97-4.62,4.13-10.43,5.28-16.36,3.24-6.06-2.08-9.97-6.64-10.99-12.82-.29-1.76-.3-3.44-.31-4.92v-.9c-.02-.95-.48-1.43-1.41-1.44-1.25-.02-2.49-.01-3.74,0h-1.64s-1.8,0-1.8,0c-1.29,0-2.59-.01-3.88.01-.61.01-1.13.37-1.24.85-.03.18-.03.72-.02,1.11,0,.4,0,.79,0,1.19-.22,7.76-4.26,13.79-11.38,17-7.05,3.17-14.92,1.71-20.56-3.8-.31-.3-.61-.61-.91-.91-.46-.47-.89-.91-1.3-1.27-1.11-.99-2.55-1-3.58-.03-2.18,2.05-4.23,4.11-6.09,6.11-1.05,1.13-1.01,2.68.1,3.86.35.37.72.74,1.09,1.1.38.37.75.74,1.12,1.12,4.57,4.71,6.26,11.39,4.52,17.86-1.72,6.42-6.48,11.31-12.73,13.08-2.15.61-4.23.69-6.07.77-.34.01-.67.03-1.01.04-.58.03-.96.32-1.02.44-.24,4.21-.19,8.63-.12,12.44,0,.2.13.43.33.61.14.12.42.32.8.29,1.1-.1,2.1-.07,2.98-.05h.28c5.88.17,11.19,3.23,14.19,8.18,2.89,4.78,3.16,10.63.71,15.67-1.21,2.48-3.01,4.32-4.59,5.94l-.59.6c-1.58,1.64-1.32,2.44-.07,3.71,1.64,1.67,3.3,3.33,4.96,4.99l2.1,2.09c.42.42.73.62.87.68.15-.06.47-.24.93-.65,1.26-1.13,2.8-2.42,4.68-3.39,2.93-1.51,6.11-2.27,9.3-2.27Z" style="fill:#fff;"/><path d="M75.79,324.64c-8.29,0-16.12-2.88-22.43-8.34-7.4-6.4-11.75-15.49-11.93-24.96-.7-17.72,12.46-33.26,30-35.4,9.45-1.15,18.6,1.35,25.76,7.05,7.25,5.76,11.96,14.24,12.92,23.25,2.02,18.96-11,35.69-29.65,38.09-1.57.2-3.13.3-4.67.3ZM76,266.67c-1.03,0-2.11.06-3.24.2-11.91,1.45-20.84,12.03-20.34,24.09v.13c.11,6.27,3.15,12.59,8.13,16.89,5.09,4.39,11.66,6.33,18.51,5.45,11.1-1.43,21.66-11.55,20.11-26.01-.64-6.01-3.94-11.92-8.83-15.81-2.96-2.35-7.72-4.94-14.34-4.94Z" style="fill:#fff;"/><rect x="159.38" y="334.64" width="11" height="46.11" style="fill:#fff;"/><rect x="175.23" y="334.64" width="11" height="46.11" style="fill:#fff;"/><rect x="193.72" y="334.64" width="11" height="46.11" style="fill:#fff;"/><rect x="209.57" y="334.64" width="11" height="46.11" style="fill:#fff;"/><rect x="229.38" y="334.64" width="11" height="46.11" style="fill:#fff;"/><rect x="245.23" y="334.64" width="11" height="46.11" style="fill:#fff;"/><rect x="262.4" y="334.64" width="11" height="46.11" style="fill:#fff;"/><rect x="278.25" y="334.64" width="11" height="46.11" style="fill:#fff;"/><rect x="295.4" y="334.64" width="11" height="46.11" style="fill:#fff;"/><rect x="312.25" y="334.64" width="11" height="46.11" style="fill:#fff;"/><rect x="330.25" y="334.64" width="11" height="46.11" style="fill:#fff;"/><path d="M291.16,269.12h-128.49c-3.04,0-5.5-2.46-5.5-5.5s2.46-5.5,5.5-5.5h128.49c3.04,0,5.5,2.46,5.5,5.5s-2.46,5.5-5.5,5.5Z" style="fill:#fff;"/></svg>