<?xml version="1.0" encoding="UTF-8"?><svg xmlns="http://www.w3.org/2000/svg" viewBox="0 0 1024 1024"><g id="Layer_1"><rect width="1024" height="1024" style="fill:#ff220f;"/></g><g id="Layer_2"><path d="M392.09,452.35c-4.14,0-7.5-3.36-7.5-7.5v-185.14c-.02-2.18-1.26-54.21-70.55-54.21-17.6,0-31.31,5.54-40.73,16.45-17.21,19.94-16.99,52.78-16.01,66.56h93.04c4.14,0,7.5,3.36,7.5,7.5s-3.36,7.5-7.5,7.5h-106.3l-.95-6.4c-.33-2.2-7.67-54.2,18.86-84.96,12.4-14.37,29.92-21.66,52.08-21.66,43.73,0,64.72,18.68,74.63,34.35,10.79,17.07,10.92,34.15,10.92,34.87v185.14c0,4.14-3.36,7.5-7.5,7.5Z" style="fill:#fff;"/><path d="M510.18,834.25l-42.03-36.55-37.92,30.69-43.83-35.06v-78.02c0-4.14,3.36-7.5,7.5-7.5s7.5,3.36,7.5,7.5v70.82l28.77,23.02,38.32-31.02,41.46,36.06,40.02-36.38,36.41,32.77,41.89-36.43,38,36.19,41.74-38.11,36.21,34.4,26.98-25.56v-501.27c-.04-1.23-.76-19.04-7.58-36.82-8.82-23-23.45-35.31-43.49-36.6-55.35-3.57-387.89-.02-391.24.02-.03,0-.06,0-.08,0-4.1,0-7.45-3.3-7.5-7.42-.04-4.14,3.28-7.54,7.42-7.58,13.71-.15,336.46-3.59,392.37.02,26.16,1.69,45.76,17.8,56.67,46.58,7.85,20.71,8.41,40.68,8.43,41.52v.18s0,507.83,0,507.83l-41.99,39.79-36.4-34.58-41.75,38.12-38.24-36.42-41.6,36.18-36.19-32.57-39.85,36.22Z" style="fill:#fff;"/><path d="M706.1,314.4h-245.04c-4.14,0-7.5-3.36-7.5-7.5s3.36-7.5,7.5-7.5h245.04c4.14,0,7.5,3.36,7.5,7.5s-3.36,7.5-7.5,7.5Z" style="fill:#fff;"/><path d="M637.46,394.38h-176.4c-4.14,0-7.5-3.36-7.5-7.5s3.36-7.5,7.5-7.5h176.4c4.14,0,7.5,3.36,7.5,7.5s-3.36,7.5-7.5,7.5Z" style="fill:#fff;"/><path d="M673.16,471.92h-212.09c-4.14,0-7.5-3.36-7.5-7.5s3.36-7.5,7.5-7.5h212.09c4.14,0,7.5,3.36,7.5,7.5s-3.36,7.5-7.5,7.5Z" style="fill:#fff;"/><path d="M334.77,692.3c-4.59,0-8.85-1.69-12.09-4.8-3.46-3.33-5.43-8.08-5.39-13.03.04-4.41-2.36-8.53-6.4-11.01-4.17-2.56-9.1-2.83-13.18-.72-1.07.55-2.27,1.57-3.29,2.49-7.34,6.58-16.22,6.34-23.18-.62l-2.72-2.72c-2.36-2.36-4.72-4.71-7.06-7.09-7.6-7.73-7.6-18.22,0-26.09l.89-.91c1.44-1.48,2.94-3,3.53-4.22,1.55-3.18.47-5.82-.31-7.12-1.46-2.41-4.09-3.89-7.03-3.97h-.43c-.84-.04-1.63-.06-2.2,0-4.54.42-9.12-1.08-12.55-4.16-3.4-3.04-5.4-7.34-5.48-11.79-.1-5.52-.17-11.94.21-18.31.48-7.94,7.2-14.24,15.64-14.67.52-.03,1.04-.05,1.56-.07,1.84-.07,3.58-.14,4.82-.49,3.44-.97,6.07-3.73,7.05-7.38,1-3.72.08-7.52-2.47-10.14-.41-.42-.84-.84-1.26-1.26-.64-.63-1.28-1.26-1.9-1.92-6.99-7.4-7.08-18.53-.2-25.9,2.78-2.98,5.82-6.03,9.04-9.06,7.09-6.68,17.95-6.78,25.28-.23.92.82,1.74,1.66,2.47,2.4.35.35.69.71,1.05,1.05,3.31,3.24,7.51,4.06,11.52,2.25,4.59-2.07,6.61-5.07,6.75-10.03,0-.35,0-.71,0-1.06-.01-1.35-.03-3.04.38-4.91,1.65-7.51,8.29-12.85,16.14-12.99,1.88-.03,3.77-.02,5.65-.02.81,0,1.61,0,2.42,0h2.21c1.81-.02,3.63-.03,5.45,0,9.4.17,16.58,7.4,16.71,16.83,0,.46,0,.91.01,1.37,0,1.62.02,3.14.22,4.37.5,3.02,2.03,4.76,5.13,5.83,3,1.03,5.26.6,7.55-1.44.68-.61,1.39-1.32,2.14-2.08.56-.57,1.12-1.13,1.7-1.68,7.22-6.92,17.64-6.97,24.77-.12,3.56,3.42,7.25,7.1,11.28,11.27,3.09,3.19,4.74,7.27,4.65,11.48-.09,4.12-1.85,8-4.96,10.95-4.92,4.66-4.97,12.77-.11,18.46,2.56,3,5.69,4.44,9.83,4.53,10.64.22,17.47,7.24,17.41,17.88,0,1.24,0,2.48,0,3.72,0,4.11.01,8.35-.31,12.65-.63,8.38-7.59,14.67-16.22,14.67-.16,0-.32,0-.48,0-3.86,0-6.12.52-8,1.83-2.71,1.89-4.44,4.8-4.73,8-.29,3.19.81,6.23,3.12,8.56,6.43,6.5,6.49,15.21.14,21.67-4.56,4.64-9.16,9.22-13.05,13.09-6.58,6.53-15.09,6.56-21.68.09-2.52-2.48-5.86-3.63-9.17-3.19-3.3.45-6.21,2.45-7.98,5.5-.85,1.46-1.27,3.12-1.29,5.08,0,.31,0,.62,0,.94.02,1.42.04,3.18-.37,5.11-1.58,7.51-8.47,13.02-16.38,13.11-1.86.02-3.73,0-5.59-.02-2.9-.04-5.64-.07-8.34.06-.3.01-.6.02-.9.02ZM303.56,646.3c5.21,0,10.46,1.46,15.18,4.37,8.56,5.26,13.63,14.2,13.55,23.92,0,.86.27,1.6.78,2.09.46.44,1.09.65,1.88.61,3.14-.15,6.24-.11,9.23-.08,1.75.02,3.5.05,5.25.02.92,0,1.72-.52,1.86-1.19.07-.32.06-1.21.05-1.86,0-.42,0-.83,0-1.25.04-4.56,1.16-8.75,3.31-12.46,4.11-7.08,11.01-11.76,18.94-12.84,7.94-1.07,15.85,1.61,21.7,7.35.1.1.2.19.28.26.09-.08.2-.18.32-.3,3.86-3.83,8.42-8.37,12.91-12.95.09-.09.17-.17.23-.25-.09-.1-.2-.23-.34-.37-5.39-5.45-8.08-12.92-7.39-20.48.7-7.61,4.74-14.52,11.1-18.94,5.84-4.07,12.17-4.54,17.02-4.51.45-.01,1.23-.09,1.29-.79.28-3.72.27-7.5.27-11.5,0-1.28,0-2.56,0-3.83.01-2.46-.27-2.74-2.73-2.8-8.38-.18-15.61-3.56-20.93-9.78-10.04-11.76-9.52-28.93,1.2-39.08.2-.19.27-.33.28-.38,0-.1-.08-.37-.43-.73-3.9-4.03-7.47-7.59-10.89-10.88-.95-.92-2.17-1.61-3.99.13-.49.47-.96.95-1.44,1.43-.87.88-1.77,1.78-2.79,2.69-6.33,5.66-14.29,7.24-22.42,4.44-8.31-2.86-13.65-9.09-15.05-17.56-.4-2.41-.41-4.71-.42-6.75,0-.41,0-.83,0-1.24-.02-1.34-.67-2.01-1.98-2.03-1.7-.03-3.4-.02-5.11-.01h-2.28c-.83,0-1.66,0-2.49,0-1.77,0-3.55-.02-5.32.02-.86.01-1.6.52-1.75,1.21-.04.24-.04.99-.03,1.54,0,.54,0,1.09,0,1.63-.3,10.63-5.83,18.9-15.59,23.3-9.65,4.34-20.44,2.35-28.17-5.21-.42-.41-.84-.84-1.25-1.26-.63-.64-1.22-1.24-1.77-1.73-1.55-1.38-3.55-1.4-4.99-.04-2.99,2.82-5.8,5.64-8.37,8.39-1.47,1.57-1.41,3.73.14,5.36.49.52,1,1.01,1.51,1.51.51.5,1.03,1.01,1.53,1.52,6.26,6.46,8.57,15.61,6.19,24.48-2.36,8.79-8.88,15.49-17.44,17.92-2.95.84-5.8.95-8.32,1.05-.46.02-.93.04-1.39.06-.82.04-1.36.46-1.44.63-.34,5.8-.27,11.87-.18,17.11,0,.29.18.62.47.88.19.17.61.46,1.14.41,1.5-.14,2.86-.1,4.07-.06h.4c8.06.24,15.33,4.42,19.44,11.21,3.97,6.54,4.33,14.57.97,21.46-1.65,3.4-4.12,5.91-6.29,8.13l-.81.83c-2.21,2.29-1.83,3.4-.09,5.17,2.3,2.34,4.63,4.66,6.96,6.99l2.74,2.73c.61.61,1.04.87,1.24.96.2-.07.66-.32,1.32-.91,1.73-1.55,3.84-3.31,6.41-4.64,4.01-2.07,8.37-3.1,12.74-3.1Z" style="fill:#fff;"/><path d="M341.79,635.34c-11.37,0-22.11-3.96-30.77-11.44-10.15-8.77-16.11-21.24-16.36-34.22-.96-24.3,17.09-45.62,41.14-48.54,12.96-1.57,25.5,1.86,35.33,9.67,9.94,7.9,16.4,19.53,17.72,31.89,1.37,12.8-2.26,25.27-10.2,35.11-7.68,9.51-18.5,15.59-30.45,17.13-2.15.28-4.29.41-6.41.41ZM342.07,555.75c-1.42,0-2.91.09-4.45.28-16.37,1.99-28.65,16.54-27.96,33.12v.18c.15,8.62,4.33,17.31,11.18,23.22,6.99,6.04,16.03,8.71,25.45,7.49,15.26-1.96,29.78-15.88,27.66-35.77-.88-8.27-5.42-16.4-12.14-21.74-4.07-3.24-10.62-6.79-19.73-6.79Z" style="fill:#fff;"/><rect x="456.6" y="649.12" width="15" height="63.3" style="fill:#fff;"/><rect x="478.36" y="649.12" width="15" height="63.3" style="fill:#fff;"/><rect x="503.75" y="649.12" width="15" height="63.3" style="fill:#fff;"/><rect x="525.5" y="649.12" width="15" height="63.3" style="fill:#fff;"/><rect x="552.7" y="649.12" width="15" height="63.3" style="fill:#fff;"/><rect x="574.46" y="649.12" width="15" height="63.3" style="fill:#fff;"/><rect x="598.04" y="649.12" width="15" height="63.3" style="fill:#fff;"/><rect x="619.79" y="649.12" width="15" height="63.3" style="fill:#fff;"/><rect x="643.34" y="649.12" width="15" height="63.3" style="fill:#fff;"/><rect x="666.47" y="649.12" width="15" height="63.3" style="fill:#fff;"/><rect x="691.18" y="649.12" width="15" height="63.3" style="fill:#fff;"/><path d="M637.46,559.12h-176.4c-4.14,0-7.5-3.36-7.5-7.5s3.36-7.5,7.5-7.5h176.4c4.14,0,7.5,3.36,7.5,7.5s-3.36,7.5-7.5,7.5Z" style="fill:#fff;"/></g></svg>