<?xml version="1.0" encoding="UTF-8"?><svg id="Layer_1" xmlns="http://www.w3.org/2000/svg" viewBox="0 0 234.83 280.77"><path d="M168.65,280.77c-7.32,0-14.44-2.03-21.31-6.09-16.9-9.98-33.24-23.47-49.97-41.24C60.53,194.3,33.06,153.73,13.4,109.43c-6.46-14.56-10.62-27.93-12.74-40.87-.3-1.86-.45-3.66-.55-4.97-.03-.4-.06-.75-.09-1.02L0,62.03c-.04-14.1,6.78-23.63,11.91-29.57C23.59,18.94,38.72,8.64,58.16.96c4.86-1.92,10.19-.94,14.99,2.76,3.44,2.65,7.85,6.25,11.36,10.59,12.07,14.92,19.44,30.08,22.52,46.35,2,10.55-1.17,19.45-9.18,25.75-7.06,5.55-14.43,10.55-20.05,14.29-1.09.73-1.18.78-.84,2.33,2.4,10.79,7.83,20.6,13.19,29.73,13.32,22.68,27.8,40.65,44.27,54.92,1.98,1.72,4.39,3.17,6.95,4.71l.74.44c.29.18.44.22.48.23,0-.01.33-.11.98-.64,3.78-3.08,7.73-5.98,11.54-8.79,1.47-1.09,2.95-2.17,4.42-3.27,11.29-8.45,23.52-8.66,35.37-.61,15.21,10.33,27.22,23.46,35.71,39.04,2.56,4.7,5.3,11.03,3.78,18.38-.37,1.77-.94,3.81-2.42,5.55-15.24,17.86-31.37,29.52-49.29,35.63-4.74,1.62-9.42,2.42-14.03,2.42ZM11,61.75c.03.28.05.6.08.96.09,1.12.21,2.66.44,4.07,1.96,12.01,5.86,24.5,11.93,38.18,19.15,43.15,45.94,82.71,81.92,120.93,16.23,17.24,31.34,29.73,47.55,39.31,8.42,4.97,16.99,5.87,26.2,2.73,16.15-5.51,30.23-15.72,44.28-32.13.04-.14.12-.39.21-.87.64-3.09-.14-6.25-2.67-10.9-7.64-14.03-18.49-25.87-32.23-35.21-8.03-5.46-15-5.36-22.6.32-1.49,1.11-2.98,2.21-4.48,3.32-3.71,2.73-7.54,5.55-11.12,8.46-6.02,4.9-11.42,2.92-14.09,1.3l-.72-.44c-2.84-1.71-5.78-3.48-8.48-5.82-17.4-15.07-32.62-33.93-46.56-57.67-5.8-9.88-11.69-20.56-14.44-32.91-1.32-5.92.53-10.59,5.49-13.88,5.46-3.62,12.59-8.47,19.34-13.77,4.77-3.75,6.41-8.53,5.17-15.05-2.74-14.44-9.37-28.01-20.27-41.48-2.79-3.45-6.55-6.51-9.51-8.79-2.51-1.93-3.82-1.41-4.25-1.24-17.75,7.01-31.48,16.32-41.97,28.46-6.43,7.44-9.2,14.07-9.24,22.1ZM223.36,235.93h0Z" style="fill:#fff;"/></svg>