<?xml version="1.0" encoding="UTF-8"?><svg id="Layer_1" xmlns="http://www.w3.org/2000/svg" viewBox="0 0 253.02 295.73"><rect x="66.45" y="118.2" width="11" height="123.38" style="fill:#f02a26;"/><rect x="119.83" y="118.2" width="11" height="123.38" style="fill:#f02a26;"/><rect x="174.4" y="118.2" width="11" height="123.38" style="fill:#f02a26;"/><path d="M235.66,23.73h-87.04v-11.12c0-6.6-6.01-12.61-12.61-12.61h-26.11c-5.66,0-11.42,6.36-11.42,12.61v11.12H18.55C9.59,23.73,0,30.71,0,41.09v33.96h5.5c.33,0,5.26,0,13.49,0v174.84c0,24.84,20.99,45.83,45.83,45.83h119.83c22.71,0,47.48-3.75,54.09-48.59l.06-.4V75.07c5.29,0,13.95,0,14.22,0v-33.98c0-10.22-7.14-17.36-17.36-17.36ZM109.48,12.61c.02-.4.58-1.23,1.07-1.61h25.46c.55.03,1.58,1.06,1.61,1.61v10.95l-28.14-.85v-10.09ZM227.8,245.93c-5.41,35.94-22.01,38.8-43.15,38.8h-119.83c-18.88,0-34.83-15.95-34.83-34.83V75.06c48.08,0,153.91,0,197.81.01v170.86ZM242.02,64.07h-3.22s-219.81-.01-219.81-.01h0s-7.99,0-7.99,0v-22.96c0-3.83,4.55-6.36,7.55-6.36h124.49l5.58.17v-.17h87.04c4.04,0,6.36,2.32,6.36,6.36v22.98Z" style="fill:#f02a26;"/></svg>