<?xml version="1.0" encoding="UTF-8"?><svg id="Layer_1" xmlns="http://www.w3.org/2000/svg" viewBox="0 0 286.56 286.56"><path d="M143.28,286.56c-3.5,0-7.01-1.33-9.67-4L4,152.96c-5.33-5.33-5.33-14.01,0-19.35L133.61,4c5.33-5.33,14.01-5.33,19.35,0l129.61,129.61c5.33,5.33,5.33,14.01,0,19.35l-129.61,129.61c-2.67,2.67-6.17,4-9.67,4ZM143.28,10.99c-.69,0-1.37.26-1.9.78L11.78,141.38c-1.05,1.05-1.05,2.75,0,3.79l129.61,129.61c1.05,1.04,2.75,1.04,3.79,0l129.61-129.61c1.04-1.05,1.04-2.75,0-3.79L145.18,11.78c-.52-.52-1.21-.78-1.9-.78Z" style="fill:#5c6f8a;"/><path d="M104.89,183.19c-3.04,0-5.5-2.46-5.5-5.5v-45.93c0-5.15,4.19-9.34,9.34-9.34h69.98c3.04,0,5.5,2.46,5.5,5.5s-2.46,5.5-5.5,5.5h-68.32v44.27c0,3.04-2.46,5.5-5.5,5.5Z" style="fill:#5c6f8a;"/><path d="M160.63,159.3c-1.53,0-3.06-.64-4.14-1.88-2-2.29-1.76-5.76.52-7.76l23.13-20.21-23.62-26.6c-2.02-2.27-1.81-5.75.46-7.76,2.27-2.02,5.75-1.81,7.76.46l25.96,29.24c1.31,1.44,2,3.36,1.89,5.37s-.98,3.85-2.47,5.19l-25.88,22.61c-1.04.91-2.33,1.36-3.62,1.36ZM182.47,132.08s.03.04.05.06l-.05-.06Z" style="fill:#5c6f8a;"/></svg>