<?xml version="1.0" encoding="UTF-8"?><svg id="Layer_1" xmlns="http://www.w3.org/2000/svg" viewBox="0 0 286.05 283.68"><path d="M279.04,35.79c-9.87-10.27-20.14-20.93-30.8-30.8-14.21-10.66-26.45-1.58-31.19,2.76-61.59,61.2-122.79,122.79-184.39,184.39-2.76,2.76-6.32,5.92-7.5,9.08-8.69,24.08-16.58,48.56-24.48,73.04-2.37,7.5,1.58,11.06,9.08,8.69,24.08-7.9,48.17-15.79,72.25-24.08,2.76-.79,5.53-3.16,7.9-5.53,63.17-63.17,126.74-125.95,189.52-189.12,9.08-9.48,8.69-18.95-.39-28.43ZM76.89,247.02c-9.48,3.55-20.53,8.69-30.4,10.27-3.16.39-7.5-5.13-11.06-8.69-3.55-3.55-9.87-7.9-9.48-10.66,2.37-10.66,6.71-21.32,10.66-31.59.39-.79,4.34-1.58,5.13-.79,1.58,1.97,37.11,34.74,38.69,36.72.39.39-1.97,4.34-3.55,4.74ZM89.52,234.78c-2.37-1.97-42.25-38.69-43.83-39.88,50.93-51.33,101.87-100.29,152.4-151.61,2.37,2.37,41.85,36.72,43.83,38.69-50.93,50.93-101.47,101.87-152.4,152.8ZM256.14,70.53c-1.18,1.18-2.76,2.37-3.95,3.16-13.82-14.21-43.83-40.27-43.83-40.27,0,0,7.9-8.69,18.16-16.98,1.97-1.58,4.74-5.13,11.45-2.37,9.48,7.5,11.45,8.69,18.56,15.79,22.9,23.29,23.29,16.19-.39,40.67Z" style="fill:#00996e;"/></svg>