<?xml version="1.0" encoding="UTF-8"?><svg id="Layer_1" xmlns="http://www.w3.org/2000/svg" viewBox="0 0 282.84 239.7"><path d="M5.49,209.83c-2.69,0-5.04-1.98-5.44-4.72-.43-3.01,1.66-5.79,4.66-6.22.31-.04,31.58-4.62,70.93-18.32,36.08-12.57,86.57-35.6,122.18-74,2.07-2.23,5.55-2.36,7.77-.29,2.23,2.07,2.36,5.55.29,7.77-37.2,40.12-89.52,64.01-126.85,76.99-40.31,14.01-71.45,18.56-72.76,18.74-.26.04-.53.06-.78.06Z" style="fill:#5c6f8a;"/><path d="M133.92,239.7c-10.6,0-21.28-1.67-31.89-5.01-17.1-5.4-32.61-16.71-43.66-31.85-10.97-15.02-17.15-33.23-17.4-51.27-.5-35.45,19.02-70.82,50.95-92.32,22.83-15.37,51.44-20.75,79.12-25.95,16.94-3.18,34.46-6.47,49.83-12.02,15.85-5.73,27.59-11.52,36.93-18.23,5.02-3.61,11.49-4.04,16.89-1.14,5.26,2.83,8.39,8.3,8.16,14.29-.62,16.18-1.74,32.56-3.32,48.69-3.3,33.71-15.85,68.48-38.36,106.29-5.89,9.9-22.66,34.8-50.99,52.08-17.9,10.92-36.95,16.44-56.25,16.44ZM267.1,11c-.86,0-1.87.23-2.9.98h0c-10.19,7.32-22.78,13.56-39.61,19.64-16.21,5.85-34.17,9.23-51.53,12.49-26.57,4.99-54.05,10.16-75,24.26-28.45,19.15-46.54,51.75-46.1,83.04.46,32.56,22.91,63.17,53.38,72.79,27.19,8.58,53.81,5.11,79.1-10.33,26.23-16,41.79-39.12,47.27-48.32,21.67-36.39,33.72-69.67,36.86-101.74,1.56-15.91,2.66-32.08,3.27-48.04.1-2.57-1.63-3.78-2.37-4.18-.36-.19-1.24-.59-2.36-.59ZM260.99,7.51h0,0Z" style="fill:#5c6f8a;"/></svg>