<?xml version="1.0" encoding="UTF-8"?><svg id="Layer_1" xmlns="http://www.w3.org/2000/svg" viewBox="0 0 307.34 307.34"><path d="M153.67,0C68.94,0,0,68.94,0,153.67s68.94,153.67,153.67,153.67,153.67-68.94,153.67-153.67S238.4,0,153.67,0ZM153.67,296.34c-78.67,0-142.67-64-142.67-142.67S75,11,153.67,11s142.67,64,142.67,142.67-64,142.67-142.67,142.67Z" style="fill:#f72616;"/><path d="M201.6,103.9c-2.14-2.16-5.62-2.17-7.78-.03l-40.15,39.82-40.15-39.82c-2.16-2.14-5.64-2.12-7.78.03s-2.12,5.64.03,7.78l40.08,39.76-40.08,39.76c-2.16,2.14-2.17,5.62-.03,7.78,1.08,1.08,2.49,1.63,3.9,1.63s2.8-.53,3.87-1.59l40.15-39.82,40.15,39.82c1.07,1.06,2.47,1.59,3.87,1.59s2.83-.54,3.91-1.63c2.14-2.16,2.12-5.64-.03-7.78l-40.08-39.76,40.08-39.76c2.16-2.14,2.17-5.62.03-7.78Z" style="fill:#f72616;"/></svg>