<?xml version="1.0" encoding="UTF-8"?><svg id="Layer_1" xmlns="http://www.w3.org/2000/svg" viewBox="0 0 357 366.46"><path d="M203.42,366.46c-4.91,0-9.79-1.54-13.93-4.58l-44.47-32.52c-6.06-4.43-9.69-11.57-9.69-19.08v-108.19c0-2.91-1.01-5.75-2.85-8L5.37,38.59C-.47,31.45-1.64,21.84,2.31,13.51S14.45,0,23.67,0h309.66c9.33,0,17.55,5.26,21.46,13.73,3.91,8.47,2.58,18.14-3.48,25.24l-121.22,142.12c-1.95,2.29-3.02,5.2-3.02,8.2v153.51c0,8.95-4.96,17.02-12.94,21.08-3.4,1.73-7.07,2.58-10.72,2.58ZM23.67,11c-5,0-9.27,2.7-11.42,7.22-2.14,4.52-1.53,9.54,1.63,13.41l127.11,155.51c3.44,4.21,5.34,9.52,5.34,14.96v108.19c0,4.02,1.94,7.83,5.18,10.2l44.47,32.52c3.92,2.87,8.85,3.27,13.18,1.07,4.33-2.2,6.92-6.41,6.92-11.27v-153.51c0-5.62,2.01-11.06,5.65-15.34L342.94,31.84c3.29-3.85,3.98-8.9,1.86-13.49s-6.41-7.34-11.47-7.34H23.67Z" style="fill:#fff;"/></svg>