<?xml version="1.0" encoding="UTF-8"?><svg id="Layer_1" xmlns="http://www.w3.org/2000/svg" viewBox="0 0 291 275.19"><path d="M289.51,143.25L153.05,3.54C150.96,1.31,148.13.06,145.07,0c-3.08-.04-5.93,1.1-8.1,3.26L1.62,143.11c-2.15,2.14-2.17,5.62-.02,7.78,1.08,1.08,2.49,1.62,3.9,1.62s2.8-.53,3.88-1.6l14.59-15.08c-.13,33.82-.1,95.75-.05,124.44.02,11.11,3.88,14.87,15.29,14.89,19.69.04,39.41.04,58.61,0,11.77-.02,15.17-3.5,15.18-15.49,0-7.18.01-14.35.03-21.53.03-22.53.07-45.82-.14-68.74-.01-1.59.16-2.33.26-2.61.28-.09,1.03-.27,2.64-.25,12.53.13,25.25.11,37.55.09,7.03-.01,14.06-.02,21.09,0,.65,0,2.22,0,3.35.09.08,1.13.08,2.7.08,3.43,0,13.1,0,26.2,0,39.3,0,16.97,0,33.95.01,50.92,0,11.03,3.69,14.76,14.6,14.79,9.62.03,19.29.04,28.84.04,10.12,0,20.1-.01,29.77-.02,12.51-.02,15.94-3.5,15.95-16.2,0-8.42,0-20.33,0-33.74-.01-29.98-.03-66.35.07-89.21l14.41,14.75c2.08,2.22,5.56,2.33,7.77.25,2.22-2.08,2.33-5.56.25-7.77ZM256.01,225.23c0,13.41.01,25.31,0,33.73,0,2.82-.12,4.25-.25,4.97-.7.12-2.07.23-4.72.23-18.78.02-38.77.04-58.57-.01-1.87,0-2.89-.1-3.44-.19-.09-.57-.19-1.63-.19-3.61-.02-16.97-.02-33.94-.01-50.91,0-13.1,0-26.2,0-39.31,0-11.5-2.97-14.48-14.4-14.51-7.04-.02-14.08,0-21.13,0-12.27.02-24.95.04-37.41-.09-3.03-.03-7.42.29-10.56,3.43-3.16,3.15-3.48,7.52-3.46,10.53.21,22.86.18,46.13.14,68.62-.01,7.18-.02,14.36-.03,21.54,0,2.33-.09,3.62-.19,4.32-.67.1-1.87.18-4.02.18-19.18.04-38.89.04-58.56,0-2.36,0-3.52-.14-4.08-.25-.1-.52-.23-1.57-.23-3.66-.06-30.94-.09-104.43.09-135.82L144.73,11.06s.11-.06.15-.06c.09,0,.13.04.15.06l111.09,113.73c-.14,22.03-.12,67.07-.11,100.44Z" style="fill:#fff;"/></svg>