<?xml version="1.0" encoding="UTF-8"?><svg id="svg2" xmlns="http://www.w3.org/2000/svg" viewBox="0 0 120.36 126.15"><path d="M59.39,53.27l52.99,35.6c4.66-8.01,7.34-17.01,7.83-26.26C122,29.89,96.58,1.9,63.43.09,30.27-1.72,1.95,23.34.16,56.05c-.65,11.83,2.02,23.04,7.57,32.62l50.42-34.65,1.24-.75Z" style="fill:#aacb6c; fill-rule:evenodd;"/><path d="M83.04,35.84s7.62-15.49,6.73-27.54c0,0-8.34,2.53-21.15,18.48,0,0-1.43-18.19-8.17-26.77,0,0-6.54,7.07-8.81,27.08,0,0-8.51-13.83-20.42-19.82,0,0-1.85,13.38,5.87,29.09,0,0-15.05-7.84-28.77-6.98,0,0,1.91,7.19,20.16,21.11,0,0-16.93.5-28.48,8.2,0,0,15.08,8.41,29.58,8.08,0,0-7.18,2.84-21.51,21.7,0,0,15.21.33,29.76-7.82,0,0,13.83-7.45,22.36-21.34,0,0,3.7,9.53,18.93,19.87,0,0,11.97,8.49,32.92,9.5,0,0-6.23-13.33-20.33-21.49,0,0,12.05.16,28.66-8.13,0,0-11.38-6.71-28.75-8.35-.05,0,14.04-8.93,19.63-21.43,0,0-13.89-.57-28.2,6.54h0Z" style="fill:#00acec; fill-rule:evenodd;"/><path d="M60.11,48.33s3.95-14.33,3.65-16.18c0,0,.47-14.8-3.39-20.48,0,0-3.55,8.66-3.49,16.03,0,0,.07,15.26,3.22,20.62ZM65.44,49.61s2.3-11.31,6.15-17c0,0,6.36-10.53,12.74-14.78,0,0-2.39,11.8-6.97,18.39,0,0-7.52,11.46-11.92,13.39ZM69.25,53.86s5.05-7.12,12.35-11.13c0,0,10.18-6.53,20.35-7.34,0,0-5.43,7.29-14.9,12.18,0,0-13.17,6.74-17.81,6.3ZM50.54,52.84s-1.04-2.61-12.22-10.15c0,0-11.23-7.08-18.93-7.28,0,0,5.24,8.68,15.37,13.27,0,0,9.6,4.53,15.78,4.16h0ZM49.35,58.58s-2.82-2.36-15.97-3.39c0,0-14.2-.62-21.01,3.48,0,0,6.24,4.13,20.73,3.93,0,0,11.68-.54,16.25-4.02ZM50.37,64.51s-.75,2.94-10.98,10.5c0,0-10.96,7.29-20.71,8.16,0,0,5.75-8.51,16.74-14.56,0,0,6.63-3.52,14.95-4.09h0ZM70.93,58.92s4.75-2.79,15.47-3.26c0,0,18.68,1.02,21.84,3.59,0,0-8.77,4.06-21.87,3.22,0,0-14.25-1.93-15.44-3.55h0ZM69.58,63.82s8.79,1.16,16.48,6.03c0,0,14.07,9.22,15.4,12.71,0,0-13.05-1.65-18.88-6.47,0,0-12.63-8.33-13-12.27ZM54.54,50.28s-8.64-7.66-11.63-13.84c0,0-5.93-10.78-6.4-18.43,0,0,9.02,7.98,12.42,15.25,0,0,6.14,12.25,5.62,17.03h0Z" style="fill:#fff; fill-rule:evenodd;"/><path d="M107.38,94.32v7.16h-11.37v5.96l11.37-.03v6.77l-11.13-.03.02,11.68-7.65.03-.05-31.56,18.81.03h0ZM49.18,94.22l-7.89.03.1,31.54,7.79-.03v-31.54h0ZM11.53,114.7c.04,8.22,6.56,11.45,13.92,11.45s13.97-2.6,13.97-10.73c0-5.79-4.67-7.95-9.3-9.25-4.67-1.3-9.3-1.75-9.3-4.22,0-2.11,2.24-2.74,4.04-2.74,2.56,0,5.3.94,5.16,3.86h8.35c-.04-7.23-6.47-10.33-12.84-10.33-6.02,0-13.07,2.74-13.07,9.74,0,5.88,4.8,7.95,9.38,9.25,4.63,1.3,9.21,1.84,9.21,4.67,0,2.38-2.6,3.28-5.12,3.28-3.55,0-5.88-1.21-6.06-4.99h-8.35s0,0,0,0ZM69.99,120.86l-3.88,4.9h-8.58l-.03-24.31h-6.29v-7.12h20.03v7.23l-6.7-.03v13.81l14.87-21.04h7.14l-.03,31.64-7.42.03v-5.1M79.21,115.05v-9.09l-6.41,9.06" style="fill-rule:evenodd;"/></svg>