<?xml version="1.0" encoding="UTF-8"?><svg id="svg2" xmlns="http://www.w3.org/2000/svg" viewBox="0 0 107.64 133.46"><path d="M0,21.28v11.27S17.45,11.64,53.64,11.64s53.82,20.91,53.82,20.91v-11.45S87.82.37,54.36,0,0,21.28,0,21.28Z" style="fill:#025da4;"/><path d="M33.64,28.37h-9.09c-1.71,0-3.09,1.38-3.09,3.09v12.59c0,1.53,1.24,2.77,2.77,2.77h7.5c1.51,0,2.73-1.22,2.73-2.73v-7.91h-3.55v6.55c0,.4-.33.73-.73.73h-4.36c-.4,0-.73-.33-.73-.73v-10.18h8.55v-4.18Z" style="fill:#025da4;"/><rect x="62.18" y="29" width="4" height="18.27" style="fill:#025da4;"/><path d="M53.66,28.85l-.02,3.7h-7.36c-.25,0-.45.2-.45.45v2.64c0,.3.24.54.54.54h7.64v4h-7.64c-.3,0-.55.24-.55.55v2.55c0,.3.24.55.55.55h7.64v3.45h-8.45c-1.56,0-2.82-1.26-2.82-2.82v-12.73c0-1.48,1.15-2.71,2.63-2.81l8.3-.07Z" style="fill:#025da4;"/><path d="M85.61,28.82l.02,3.73h-7.36c-.25,0-.45.2-.45.45v2.64c0,.3.24.54.54.54h7.64v4h-7.64c-.3,0-.55.24-.55.55v2.55c0,.3.24.55.55.55h7.64v3.45h-8.45c-1.56,0-2.82-1.26-2.82-2.82v-12.73c0-1.48,1.15-2.71,2.63-2.81l8.26-.1Z" style="fill:#025da4;"/><rect x=".18" y="58" width="21.45" height="21.45" style="fill:#025da4;"/><rect x="43.18" y="58" width="21.45" height="21.45" style="fill:#be001e;"/><rect x="86.18" y="58" width="21.45" height="21.45" style="fill:#0f8e3f;"/><polygon points="0 90.55 25.45 90.55 25.45 99.64 18.09 99.64 18.09 133.1 7.64 133.1 7.64 99.64 .18 99.64 0 90.55" style="fill:#025da4;"/><polygon points="37.45 133.28 37.45 90.91 50.91 90.91 53.64 109.71 54.13 109.71 56.73 90.55 69.45 90.55 69.45 133.28 60.91 133.28 60.91 105.46 56.73 133.28 50.91 133.28 46.91 107.1 46.91 133.28 37.45 133.28" style="fill:#025da4;"/><path d="M107.27,117.64s.93-6.16-6.16-7.07c-.03-.02-.29,0-.32-.3-.04-.41.75-.38,1.01-.43.43-.08.86-.2,1.27-.35,1.05-.39,2.02-1.02,2.69-1.93.57-.77.96-1.82.96-3.24,0-5.45,0-6.82-1.3-9-1.3-2.18-3.48-4.32-6.95-4.59-3.48-.27-16.84,0-16.84,0v42.73h19.82s5.27-1.09,5.82-6.18c.55-5.09,0-9.64,0-9.64ZM96.64,124.1c0,1.56-1.7,2.11-1.7,2.11h-2.59v-11.7s2.04-.05,2.86,0c1.36.08,1.43,2.18,1.43,2.18v7.41ZM96.64,105.89c0,1.36-1.7,1.84-1.7,1.84h-2.59v-10.23s2.04-.04,2.86,0c1.36.07,1.43,1.91,1.43,1.91v6.48Z" style="fill:#025da4;"/></svg>