<?xml version="1.0" encoding="UTF-8"?><svg id="svg2" xmlns="http://www.w3.org/2000/svg" viewBox="0 0 139.04 89.04"><g id="g474"><g id="g484"><path id="path486" d="M112.63,37.62C109.97,17.43,92.69,1.84,71.77,1.84c-22.76,0-41.22,18.45-41.22,41.21,0,8.21,2.4,15.86,6.54,22.29l-1.06-1.84c-4.14-6.43-6.54-14.07-6.54-22.29C29.49,18.45,47.94,0,70.71,0c20.92,0,38.2,15.59,40.86,35.78l1.06,1.84Z" style="fill:#0070b8;"/></g><g id="g488"><path id="path490" d="M106.61,65.09c4.04-6.37,6.38-13.93,6.38-22.03l-1.06-1.84c0,8.1-2.34,15.66-6.38,22.03l1.06,1.84Z" style="fill:#0070b8;"/></g><g id="g492"><path id="path494" d="M109.84,41.96c-.22.11-.44.21-.66.32" style="fill:#0070b8;"/></g><g id="g496"><path id="path498" d="M117.65,34.85c-5.19.92-16.05,3.72-19,4.49-.44.11-.7.19-.74.2l9.14,1.84c.17-.05.33-.1.5-.15,6.34-1.95,10.1-2.97,10.1-2.97-2.7,1.27-5.3,2.5-7.8,3.71l3.12,2.35c14.41-8.1,25.94-14.13,25.94-14.13l-21.26,4.68Z" style="fill:#0070b8;"/></g><g id="g500"><path id="path502" d="M111.75,44.99c.41-.23.81-.46,1.22-.68" style="fill:#0070b8;"/></g><g id="g504"><path id="path506" d="M109.53,46.25c.75-.42,1.49-.84,2.22-1.26" style="fill:#0070b8;"/></g><g id="g508"><path id="path510" d="M95.61,49.05c-1.13.58-2.23,1.16-3.31,1.72l4.34,2.93c4.34-2.57,8.71-5.08,12.89-7.46l-13.92,2.8Z" style="fill:#0070b8;"/></g><g id="g512"><path id="path514" d="M77.61,83.38c.19,1.53,1.51,2.05,2.64,2.05,1.45,0,2.75-.77,2.75-1.93,0-1.57-1.32-1.86-3.8-2.59-1.53-.46-4.74-1.18-4.74-4.41,0-2.44,2.48-4.37,5.84-4.37,2.31,0,5.71,1.24,5.9,4.37h-3.77c-.16-1.37-1.24-1.72-2.23-1.72-1.16,0-2.05.64-2.05,1.55,0,1.33,1.29,1.61,3.31,2.13,1.64.41,5.22,1.39,5.22,4.72s-3.34,4.89-6.46,4.89c-2.56,0-6.27-1.33-6.49-4.7h3.88Z" style="fill:#0070b8;"/></g></g><g id="g516"><path id="path518" d="M89.04,72.45h10.15v2.65h-6.46v3.75h6.16v2.65h-6.16v6.27h-3.69v-15.33Z" style="fill:#0070b8;"/></g><g id="g520"><path id="path522" d="M104.18,75.1h-3.69v-2.65h11.09v2.65h-3.72v12.67h-3.69v-12.67Z" style="fill:#0070b8;"/></g><g id="g526"><g id="g532"><path id="path534" d="M113.36,72.45h6.11c2.29,0,3.71.33,4.85,1.04,1.13.7,2.34,1.95,2.34,3.71,0,1.01-.49,2.61-1.91,3.67-1.18.87-2.32,1.08-3.31,1.27l5.41,5.65h-4.47l-5.27-5.86h-.05v5.86h-3.69v-15.33ZM117.04,79.78h2.37c3.04,0,3.55-1.55,3.55-2.36,0-.85-.67-2.32-3.55-2.32h-2.37v4.68Z" style="fill:#0070b8;"/></g></g><g id="g536"><path id="path538" d="M128.89,72.45h10.15v2.65h-6.46v3.75h6.16v2.65h-6.16v6.27h-3.69v-15.33Z" style="fill:#0070b8;"/></g><g id="g542"><g id="g548"><path id="path550" d="M57.27,82.68c1.6-4.71,14.73-13.93,30.01-23.34l-4.96-3.16c-29.58,16.62-34.54,25.19-33.34,28.41,1.81,4.88,16.24,2.84,20.5,2.12-3.76.41-13.6.08-12.21-4.04" style="fill:#0070b8;"/></g><g id="g552"><path id="path554" d="M69.48,86.72c.54-.06.95-.13,1.19-.21,0,0-.44.09-1.19.21" style="fill:#0070b8;"/></g><g id="g556"><path id="path558" d="M73.05,47.76c-.64.24-1.27.47-1.91.71l2.92-1.08c-.34.12-.67.25-1.01.37" style="fill:#0070b8;"/></g><g id="g560"><path id="path562" d="M99.91,49.02c9.13-.89,13-4.97,13-4.97,0,0-3.37-2.73-6.58-3.69-3.21-.96-11.55-2.09-11.55-2.09,2.57-.48,6.9-4.33,9.15-7.06s3.85-7.7,3.85-7.7c-3.53-.32-10.43.64-13.8,1.61-3.37.96-7.38,3.21-7.38,3.21,1.93-2.89,3.21-6.42,4.01-10.11s.32-11.71.32-11.71c-2.89,1.93-6.42,4.81-8.83,7.38-2.41,2.57-5.13,7.7-5.13,7.7,0,0-.32-4.97-1.28-8.5-.96-3.53-4.81-11.81-4.81-11.81-1.61,2.15-4.01,7.8-4.97,11.01-.96,3.21-1.6,8.83-1.6,8.83,0,0-1.12-2.73-3.85-6.42-2.73-3.69-10.59-7.86-10.59-7.86-.32,2.57-.16,9.63,1.76,14.76,1.93,5.13,4.81,7.86,4.81,7.86,0,0-4.53-3.52-9.95-5.46-6.74-2.41-12.03-1.28-12.03-1.28.96,4.33,4.65,8.99,7.38,11.23,2.73,2.25,8.34,4.97,8.34,4.97-3.05-.48-4.31-.66-9.93.3-5.62.96-10.75,4.25-10.75,4.25,0,0,5.07,3.97,11.01,5.25,5.94,1.28,9.84.95,9.84.95-4.33,1.28-8.18,5.29-10.43,8.18-2.25,2.89-4.33,7.86-4.33,7.86,7.7,0,16.74-4.96,24.23-7.54,7.8-2.68,10.75-11.07,10.75-11.07,1.6,2.89,9.26,10.14,15.71,12.88,10.01,4.25,19.82,4.2,19.82,4.2-1-2.59-4.53-6.58-8.06-9.95-3.37-3.22-8.21-5.36-8.21-5.36,0,0,3.53.8,10.11.16M87.76,30.02c4.38-2.54,10.92-4.99,17.59-4.2,0,0-5.27,7.34-10.47,10.2-4.74,2.61-12.11,5.31-18.62,4.7,0,0,5.68-7.33,11.5-10.71M48.18,36.21c-10.44-6.25-10.88-11.82-10.88-11.82,0,0,6.44-.69,15.94,5.25,4.99,3.12,9.74,9.49,11.15,13.38,0,0-8.59-2.25-16.22-6.82M53.1,58.51c-7.61,4.42-13.98,5.49-13.98,5.49,0,0,2.67-6.96,9.24-10.9,5.6-3.36,12.35-4.67,15.88-4.49,0,0-3.54,5.48-11.15,9.91M51.64,48.36c-10.97.53-19.65-4.89-19.65-4.89,0,0,7.64-3.31,15.07-3.31s14.14,3.43,18.21,5.91c0,0-2.65,1.77-13.62,2.3M66.83,39.75s-5.52-4.66-9.84-11.97c-2.9-4.91-4.5-8.07-5.74-18.21,0,0,7.59,6.33,10.68,11.13,3.09,4.8,5.36,14.42,4.89,19.05M70.64,37.95s-3.76-10.24-3.9-15.91c-.14-5.66,1.42-12.66,3.95-18.12,0,0,4.12,10.93,4.35,17.47.27,7.96-3.41,15.07-4.39,16.55M79.32,20.08c2.49-3.67,6.57-7.88,10.32-10.88,0,0,.97,10.89-3.75,17.63-4.42,6.31-8.62,10.02-11.63,11.25,0,0,1.35-12.52,5.06-18.01M91.26,51.72c6.53,4.1,9.99,7.57,11.76,10.75,0,0-10.56-.29-17.26-4.75-5.25-3.5-9.52-6.96-10.76-11.38,0,0,8.65.6,16.26,5.38M77.03,43.91s9.5-4.48,17.11-3.95c7.61.53,13.85,2.36,17.21,3.77,0,0-8.56,4.25-17.21,3.92-9.75-.37-15.16-2.32-17.11-3.74" style="fill:#009a54;"/></g><g id="g564"><path id="path566" d="M71.17,48.45C35.68,61.73,3.09,78.84,3.09,78.84l-3.09,10.21c22.36-16.06,51.27-27.69,74.89-36.63l.27-.09s-1.58-1.52-2.09-2.08c-.52-.56-1.65-1.88-1.65-1.88l-.24.09Z" style="fill:#0070b8;"/></g></g></svg>