<?xml version="1.0" encoding="UTF-8"?><svg id="Layer_1" xmlns="http://www.w3.org/2000/svg" viewBox="0 0 307 307"><path d="M153.5,307C68.86,307,0,238.14,0,153.5S68.86,0,153.5,0s153.5,68.86,153.5,153.5-68.86,153.5-153.5,153.5ZM153.5,11C74.93,11,11,74.93,11,153.5s63.93,142.5,142.5,142.5,142.5-63.92,142.5-142.5S232.08,11,153.5,11Z" style="fill:#5c6f8a;"/><path d="M217.19,215.04c-1.02,0-2.05-.28-2.97-.88l-68.64-44.24c-1.57-1.01-2.52-2.75-2.52-4.62v-93.03c0-3.04,2.46-5.5,5.5-5.5s5.5,2.46,5.5,5.5v90.04l66.12,42.62c2.55,1.65,3.29,5.05,1.64,7.6-1.05,1.63-2.82,2.52-4.63,2.52Z" style="fill:#5c6f8a;"/></svg>