<?xml version="1.0" encoding="UTF-8"?><svg id="Layer_1" xmlns="http://www.w3.org/2000/svg" viewBox="0 0 293.9 294.36"><path d="M136.54,294.36c-5.29,0-10.2-1.93-13.91-5.5-4.05-3.89-6.25-9.25-6.2-15.08.07-8.4-4.41-16.19-11.98-20.84-7.76-4.77-16.99-5.24-24.69-1.25-2.12,1.09-4.2,2.85-5.96,4.43-8.49,7.61-18.36,7.35-26.4-.7l-4.03-4.02c-3.37-3.37-6.86-6.84-10.26-10.31-9.17-9.33-9.16-21.04.03-30.56.42-.43.84-.87,1.27-1.31,2.53-2.59,4.92-5.03,6.18-7.61,2.49-5.11,2.23-10.82-.7-15.66-3.1-5.12-8.65-8.29-14.83-8.46l-.63-.02c-1.4-.04-2.72-.08-3.9.03-5.13.48-10.31-1.23-14.21-4.71-3.85-3.44-6.1-8.28-6.19-13.28-.14-7.97-.25-17.24.3-26.39.53-8.83,8.14-15.85,17.71-16.34.73-.04,1.48-.07,2.22-.1,3.04-.12,5.9-.23,8.34-.92,6.9-1.96,12.18-7.44,14.12-14.66,1.97-7.33.11-14.84-4.98-20.09-.64-.66-1.29-1.3-1.95-1.94-.86-.85-1.75-1.72-2.63-2.65-8.22-8.7-8.34-21.78-.27-30.42,4-4.28,8.37-8.67,12.99-13.03,8.29-7.81,21.01-7.92,29.6-.24,1.21,1.08,2.3,2.19,3.36,3.27.53.54,1.07,1.09,1.61,1.62,6.45,6.31,15.03,7.95,22.95,4.38,8.57-3.86,12.86-10.25,13.12-19.54.02-.58,0-1.18,0-1.77-.02-1.79-.04-3.82.43-5.95C118.9,6.24,126.45.19,135.4.04c2.74-.05,5.49-.04,8.15-.02,2.27,0,4.53.01,6.8,0,2.57-.01,5.23-.03,7.88.02,10.73.19,18.94,8.46,19.09,19.23,0,.65.01,1.3.02,1.95.01,2.59.02,5.04.39,7.27,1.06,6.41,4.71,10.61,11.14,12.82,6.27,2.15,11.66,1.1,16.48-3.21,1.12-1.01,2.22-2.1,3.37-3.27.79-.8,1.58-1.6,2.4-2.37,8.5-8.16,20.3-8.23,28.67-.19,5.15,4.95,10.51,10.3,16.37,16.35,3.5,3.61,5.37,8.19,5.26,12.88-.1,4.55-2.07,8.87-5.55,12.17-9.32,8.83-9.56,24.01-.56,34.56,4.77,5.59,10.81,8.39,18.45,8.55,12.68.27,20.2,7.99,20.13,20.67-.01,1.82,0,3.65,0,5.47,0,5.92.02,12.03-.44,18.12-.71,9.43-8.69,16.47-18.45,16.41-7.1-.08-11.58,1-15.38,3.65-5.3,3.69-8.68,9.42-9.25,15.71-.57,6.22,1.66,12.38,6.13,16.9,7.37,7.45,7.44,16.66.2,24.04-6.63,6.75-13.36,13.45-19.06,19.11-7.41,7.35-16.63,7.4-24.04.11-4.91-4.82-11.48-7.08-18.01-6.19-6.53.88-12.25,4.79-15.69,10.73-1.73,2.98-2.58,6.3-2.62,10.14,0,.49,0,.99,0,1.49.02,1.9.04,4.05-.42,6.29-1.79,8.5-9.64,14.74-18.68,14.83-2.7.03-5.42,0-8.05-.04-4.34-.05-8.43-.1-12.55.1-.35.02-.7.02-1.05.02ZM90.83,237.99c6.64,0,13.33,1.87,19.37,5.58,10.89,6.69,17.32,18.02,17.23,30.31-.02,2.78.98,5.29,2.83,7.06,1.78,1.71,4.14,2.55,6.81,2.42,4.45-.21,8.9-.16,13.2-.11,2.57.03,5.22.07,7.8.04,3.92-.04,7.29-2.6,8.03-6.1.22-1.06.21-2.44.19-3.91,0-.57-.01-1.15,0-1.71.05-5.71,1.44-10.95,4.1-15.55,5.16-8.9,13.81-14.77,23.73-16.12,9.94-1.34,19.85,2.03,27.19,9.25,3.16,3.1,5.4,3.08,8.58-.07,5.68-5.63,12.37-12.3,18.96-19.01,3.03-3.08,2.98-5.41-.17-8.6-6.75-6.83-10.13-16.17-9.26-25.63.88-9.53,5.95-18.18,13.93-23.73,7.25-5.05,15.07-5.68,21.75-5.62h.07c4.04,0,7.04-2.55,7.32-6.23.43-5.67.42-11.57.41-17.28,0-1.85,0-3.7,0-5.55.04-6.6-2.76-9.47-9.36-9.61-10.81-.23-19.76-4.4-26.59-12.4-12.81-15-12.21-36.83,1.36-49.69,1.35-1.28,2.08-2.81,2.12-4.42.04-1.74-.73-3.51-2.17-5-5.77-5.96-11.03-11.22-16.09-16.07-4.08-3.92-9.23-3.84-13.44.19-.75.71-1.47,1.45-2.2,2.18-1.22,1.23-2.48,2.5-3.85,3.72-7.84,7-17.31,8.87-27.39,5.41-10.32-3.55-16.68-10.96-18.42-21.43-.51-3.1-.53-6.11-.54-9.01,0-.62,0-1.24-.01-1.86-.07-4.93-3.4-8.3-8.28-8.38-2.52-.04-5.12-.03-7.63-.02-1.09,0-2.19.01-3.28.01h0c-1.21,0-2.41,0-3.62-.01-2.6-.01-5.29-.02-7.91.02-3.83.07-7.04,2.56-7.82,6.07-.2.91-.19,2.16-.17,3.48,0,.73.01,1.46,0,2.18-.38,13.54-7.15,23.66-19.6,29.26-12.03,5.41-25.5,2.91-35.16-6.55-.6-.58-1.18-1.18-1.76-1.77-.98-1-1.9-1.94-2.85-2.78-4.37-3.9-10.56-3.89-14.72.04-4.45,4.2-8.66,8.42-12.5,12.53-4.12,4.41-4.02,10.87.22,15.36.76.8,1.55,1.58,2.34,2.36.72.71,1.44,1.42,2.15,2.14,7.81,8.05,10.69,19.49,7.7,30.6-2.95,11-11.08,19.37-21.74,22.39-3.69,1.05-7.36,1.19-10.9,1.33-.7.03-1.4.05-2.09.09-3.41.17-7.07,2.47-7.29,6.01-.53,8.76-.42,17.77-.28,25.54.03,1.95.95,3.87,2.52,5.28,1.64,1.47,3.71,2.16,5.84,1.96,1.85-.18,3.59-.12,5.26-.07l.6.02c9.94.28,18.88,5.42,23.93,13.75,4.84,7.98,5.28,17.77,1.18,26.18-2.03,4.17-5.31,7.52-8.2,10.48-.41.42-.82.83-1.22,1.25-5.02,5.2-5.05,10.18-.1,15.22,3.37,3.43,6.83,6.89,10.19,10.23l4.04,4.03c3.94,3.94,7.1,4.02,11.28.28,2.28-2.04,5.04-4.35,8.25-6.01,5.07-2.62,10.59-3.93,16.13-3.93Z" style="fill:#fff;"/><path d="M146.82,210.95c-15.34,0-29.83-5.33-41.49-15.41-13.7-11.84-21.74-28.65-22.06-46.13-1.33-32.78,23-61.54,55.43-65.48,17.76-2.16,34.24,2.34,47.65,13,13.42,10.67,22.13,26.33,23.91,42.98,1.84,17.29-3.04,34.12-13.75,47.38-10.35,12.82-24.93,21.02-41.03,23.09-2.91.37-5.8.56-8.66.56ZM147.25,94.41c-2.31,0-4.71.14-7.22.45-26.79,3.26-46.89,27.05-45.76,54.17v.13c.25,14.38,6.91,28.25,18.26,38.06,11.43,9.88,26.19,14.24,41.55,12.26,28.47-3.67,48.35-29.31,45.25-58.39-1.44-13.54-8.85-26.82-19.81-35.54-6.67-5.31-17.4-11.14-32.26-11.14Z" style="fill:#fff;"/></svg>