<?xml version="1.0" encoding="UTF-8"?><svg id="Layer_1" xmlns="http://www.w3.org/2000/svg" viewBox="0 0 480 720"><rect width="480" height="720" style="fill:#ff220f;"/><path d="M263.22,183.1c-.36-.05-.72-.13-1.09-.16-4.41-.38-8.41-1.85-11.98-4.46-5.03-3.69-8.17-8.62-9.46-14.72-.02-.09-.02-.19-.04-.32.05.03.09.04.1.07.54.93,1.39,1.32,2.41,1.39.45.03.9.02,1.35.02,1.65,0,3.31,0,4.96,0h.5c.16-.97.31-1.9.47-2.88-.2-.01-.36-.03-.51-.03-1.68,0-3.36-.02-5.05,0-1.09.02-1.43-.5-1.49-1.34-.04-.6,0-1.2,0-1.8,0-.04.03-.07.06-.16.15,0,.31,0,.47,0,1.5,0,3.01,0,4.51,0,.11,0,.22,0,.33,0,.15,0,.22-.08.25-.22.14-.83.28-1.67.42-2.55-.42-.04-.81-.02-1.2-.02-.4,0-.79,0-1.19,0h-3.66c-.01-1.01,0-1.97,0-2.99,1.13-.02,2.23,0,3.34,0,1.1,0,2.21,0,3.34,0,.15-.97.3-1.89.44-2.8-.03-.04-.03-.05-.04-.06,0,0-.02-.02-.03-.02-.03,0-.05-.01-.08-.02-.03,0-.05,0-.08,0-2.71,0-5.41,0-8.12-.01-.01,0-.03,0-.09-.03.05-.13.09-.27.15-.4,1.73-3.96,4.33-7.22,7.8-9.79,3.04-2.25,6.44-3.68,10.16-4.32,2.03-.35,4.08-.46,6.13-.24,7.68.81,13.59,4.49,17.71,11.01,1.78,2.82,2.86,5.91,3.34,9.22.07.47.11.95.17,1.42.01.12.04.23.13.35.02-.1.05-.2.07-.29.36-1.52,1.29-2.5,2.77-2.95,1.08-.33,2.17-.39,3.28-.2.25.04.51.09.82.14-.2.92-.39,1.8-.58,2.72-.29-.06-.55-.14-.81-.16-.36-.02-.74-.03-1.1.03-.5.08-.86.4-1.07.87-.18.39-.26.81-.26,1.23,0,.9-.01,1.8-.01,2.71,0,1.02,0,2.05,0,3.07,0,.15-.01.29-.02.49-1.1,0-2.16,0-3.22,0,.01-.15.03-.3.03-.45,0-1.46,0-2.92,0-4.38,0-.75.03-1.5-.02-2.25-.11-1.68-.91-2.91-2.47-3.61-.67-.3-1.37-.45-2.1-.52-1.15-.1-2.29-.02-3.39.38-1.39.51-2.34,1.44-2.69,2.9-.11.46-.14.95-.14,1.42-.01,2.04,0,4.07,0,6.11,0,.13.02.26.03.44,1.08,0,2.14,0,3.23,0,0-.22,0-.38,0-.54,0-1.71,0-3.41,0-5.12,0-.33.02-.66.07-.98.17-1.15.83-1.75,1.99-1.78,1.16-.03,1.95.45,2.17,1.76.05.32.07.65.07.98,0,1.72,0,3.44,0,5.16,0,.16,0,.32,0,.51.19,0,.34.02.49.02.77,0,1.53,0,2.3,0,.15,0,.3-.02.45-.04-.53,2.07-1.29,4.06-2.37,5.91-3.55,6.1-8.76,9.99-15.63,11.64-1.28.31-2.58.45-3.88.57-.15.01-.29.06-.44.08h-1.97ZM259.86,154.78c-.46-.26-.85-.53-1.29-.72-1.03-.46-2.12-.5-3.22-.32-1.92.32-3.38,1.29-4.2,3.09-.41.9-.57,1.86-.51,2.84.14,2.29,1.21,3.97,3.32,4.91,1.71.76,3.48.76,5.25.2,1.78-.56,2.95-1.76,3.53-3.53.26-.8.37-1.62.37-2.46.01-2.77,0-5.55,0-8.32,0-.13-.02-.26-.02-.4h-3.25v4.71ZM276.01,160.23c.02-.13.04-.22.04-.32.02-.87-.09-1.72-.37-2.54-.58-1.75-1.73-2.92-3.51-3.43-1.35-.39-2.73-.41-4.09-.01-1.83.54-3.09,1.69-3.7,3.52-.23.68-.3,1.38-.28,2.1.06,2.58,1.58,4.57,4.06,5.29,1.28.38,2.59.4,3.9.2.42-.07.82-.19,1.23-.29.23-.06.37-.17.38-.45.01-.39.09-.79.13-1.18.03-.34.06-.67.09-1.07-.19.07-.33.12-.47.18-.81.33-1.64.51-2.52.45-.92-.07-1.77-.34-2.45-1.01-.39-.38-.63-.85-.73-1.44h8.28Z" style="fill:#fff;"/><path d="M188.31,134.65c.15.07.29.14.44.2,8.46,3.24,16.92,6.48,25.39,9.72.09.03.18.06.27.1.4.17.54.41.47.84-.07.42-.15.83-.23,1.25-.15.82-.3,1.64-.46,2.45-.14.69-.43.86-1.11.65-4.06-1.24-8.12-2.48-12.17-3.72-1.9-.58-3.81-1.16-5.72-1.74-.12-.04-.23-.08-.36-.1-.49-.08-.83.18-.88.67-.05.61-.09,1.23-.13,1.84-.1,1.55-.18,3.11-.28,4.66-.15,2.37-.3,4.74-.46,7.11-.09,1.42-.17,2.83-.26,4.25-.13,2.09-.26,4.17-.39,6.26-.09,1.47-.18,2.94-.27,4.42-.11,1.79-.22,3.57-.33,5.36-.03.52-.28.75-.82.76-.83,0-1.67,0-2.5,0-1.04,0-2.08,0-3.12,0-.66,0-.87-.22-.91-.88-.15-2.47-.31-4.93-.47-7.4-.1-1.53-.18-3.05-.28-4.58-.12-1.96-.25-3.92-.38-5.89-.09-1.46-.18-2.92-.27-4.38-.13-2.04-.26-4.09-.39-6.13-.09-1.5-.18-3-.27-4.5-.02-.3-.04-.6-.07-.9-.05-.49-.39-.75-.88-.67-.12.02-.24.06-.36.1-5.49,1.68-10.99,3.35-16.48,5.03-.5.15-.99.31-1.49.45-.58.17-.9-.01-1.01-.6-.22-1.13-.42-2.25-.64-3.38-.03-.15-.12-.29-.18-.44,0-.11,0-.22,0-.33.25-.24.5-.46.85-.59,8.46-3.23,16.92-6.47,25.38-9.71.15-.06.29-.13.44-.2.11,0,.22,0,.33,0Z" style="fill:#fff;"/><path d="M318.69,159.82c-.03.09-.08.17-.09.26-.27,2.54-2.01,4.42-4.54,4.88-1.32.24-2.64.24-3.92-.22-2.23-.8-3.5-2.38-3.77-4.75-.09-.83-.02-1.64.22-2.43.62-2.05,2.02-3.26,4.08-3.71,1.01-.22,2.03-.23,3.04.07.57.17,1.09.43,1.55.81.06.05.13.1.25.18.07-.44.03-.83.03-1.21,0-.4,0-.79,0-1.19v-1.19c0-.39,0-.79,0-1.24,1.07,0,2.1-.02,3.13-.03v9.76ZM315.52,159.41c0-1.64-.96-2.76-2.59-2.94-1.24-.14-2.58.37-3.09,1.83-.08.24-.14.5-.16.76-.12,1.17.34,2.58,1.8,3.12.67.25,1.36.26,2.05.05,1.25-.37,1.98-1.42,1.99-2.83Z" style="fill:#fff;"/><path d="M205.57,179.63c-.71,0-1.42,0-2.13,0-.63,0-.9-.31-.83-.93.29-2.4.58-4.8.87-7.2.02-.18.04-.35.05-.53.05-.46-.11-.72-.56-.87-.32-.11-.66-.18-.97-.31-.45-.19-.97.17-1.01.65-.05.64-.15,1.27-.23,1.91-.18,1.53-.37,3.06-.55,4.6-.07.57-.13,1.14-.2,1.71-.02.15-.04.3-.07.44-.06.31-.27.46-.56.52-.11.02-.22.01-.33.01-1.52,0-3.04,0-4.55,0-.07,0-.14,0-.21,0-.46-.03-.74-.32-.71-.78.08-1.36.17-2.73.26-4.09.07-1.05.14-2.1.21-3.15.13-2.1.27-4.2.4-6.3.09-1.49.18-2.97.27-4.46.13-2,.26-4.01.38-6.01.06-1.01.12-2.02.19-3.03.05-.79.09-1.58.16-2.37.12-1.44,1.48-2.41,2.87-2,1.48.43,2.94.92,4.41,1.38,2.52.8,5.05,1.59,7.57,2.39,1.46.46,2.35,1.44,2.64,2.95.1.53.04,1.06-.06,1.59-.76,4.09-1.52,8.18-2.29,12.28-.68,3.62-1.35,7.24-2.03,10.87-.1.55-.31.72-.86.73-.71,0-1.42,0-2.13,0ZM205.25,156.51c.01-.44-.14-.68-.51-.8-.35-.12-.7-.23-1.06-.32-.53-.14-.88.1-.97.64-.01.08-.03.16-.04.24-.18,1.56-.37,3.12-.54,4.68-.05.44.11.69.53.85.31.12.62.22.93.32.61.2,1-.04,1.08-.66.14-1.06.26-2.11.39-3.17.07-.61.14-1.22.2-1.77Z" style="fill:#fff;"/><path d="M174.85,179.63c-1.42,0-2.84,0-4.27,0-.48,0-.96-.07-1.4-.27-1-.45-1.65-1.21-1.87-2.29-.32-1.58-.6-3.16-.9-4.75-.56-3.02-1.12-6.04-1.69-9.06-.53-2.87-1.07-5.74-1.6-8.61-.09-.51-.19-1.02-.29-1.53-.01-.07-.03-.13-.04-.2-.06-.51.07-.74.56-.89,1.38-.44,2.76-.87,4.14-1.31.38-.12.75-.24,1.13-.36.55-.16.88.02.98.59.19,1.08.36,2.15.53,3.23.4,2.45.8,4.9,1.2,7.35.4,2.42.79,4.85,1.18,7.27.14.88.28,1.75.43,2.63.09.55.34.75.89.76.22,0,.44.01.66,0,.48-.03.78-.38.73-.85-.2-1.75-.4-3.5-.6-5.25-.15-1.32-.29-2.63-.44-3.95-.18-1.59-.36-3.17-.54-4.76-.15-1.33-.3-2.66-.45-3.99-.12-1.1-.25-2.2-.38-3.3-.1-.84-.1-1.06.82-1.34,1.94-.6,3.88-1.22,5.82-1.83.08-.02.16-.05.23-.07.52-.14.89.11.93.65.03.31.05.63.07.94.09,1.54.18,3.08.28,4.62.12,1.95.25,3.9.38,5.85.09,1.5.18,3,.27,4.5.13,2,.26,4.01.38,6.01.06.97.12,1.94.18,2.9.08,1.23.14,2.45.24,3.68.12,1.65-.83,3.09-2.36,3.49-.33.09-.67.12-1.01.12-1.41.01-2.82,0-4.23,0Z" style="fill:#fff;"/><path d="M297.63,160.19c.02.45.18.79.4,1.1.5.75,1.24,1.14,2.1,1.32,1.06.23,2.09.1,3.1-.29.16-.06.33-.12.55-.2-.04.45-.08.85-.11,1.25-.03.29-.07.57-.08.86-.02.26-.12.41-.39.49-1.05.31-2.11.42-3.2.38-.81-.03-1.6-.17-2.36-.46-1.97-.78-3.13-2.22-3.46-4.31-.15-.97-.11-1.94.2-2.87.61-1.83,1.88-2.97,3.72-3.5,1.32-.37,2.65-.35,3.97.02,1.85.52,3.01,1.75,3.57,3.57.22.71.3,1.44.33,2.18,0,.13,0,.27,0,.44-.19.01-.35.03-.51.03-2.43,0-4.87,0-7.3,0h-.5ZM302.45,158.06c0-.78-.47-1.53-1.18-1.86-.83-.39-1.67-.38-2.48.06-.7.38-1.08,1-1.27,1.8h4.94Z" style="fill:#fff;"/><path d="M227.37,160.84c0-6.28,0-12.57,0-18.85,0-.15,0-.3.01-.45.03-.26.25-.45.5-.46.26,0,.49.2.53.47.01.11,0,.22,0,.33,0,12.64,0,25.28,0,37.91,0,.11,0,.22,0,.33-.03.28-.26.48-.52.48-.26,0-.48-.21-.51-.49-.01-.14,0-.27,0-.41,0-6.28,0-12.57,0-18.85Z" style="fill:#fff;"/><path d="M259.83,159.39c0,1.41-.76,2.47-2.03,2.82-.56.16-1.13.16-1.7,0-1.21-.32-2.01-1.36-2.03-2.7,0-.4.05-.82.18-1.2.42-1.28,1.54-1.88,2.88-1.81.3.02.6.07.88.17,1.15.38,1.83,1.41,1.83,2.72Z" style="fill:#fff;"/><path d="M267.69,158c.2-1.12,1.11-1.94,2.2-2.02.5-.04.98.01,1.43.24.71.36,1.08.96,1.19,1.77h-4.83Z" style="fill:#fff;"/><path d="M103.12,337.33l-6.92-17.95h4.6l4.77,13.28,4.64-13.28h4.12l-6.71,17.95h-4.5Z" style="fill:#fff;"/><path d="M116.14,335.75c-1.46-1.22-2.19-2.92-2.19-5.09s.73-3.87,2.2-5.09,3.28-1.83,5.43-1.83,3.98.61,5.43,1.83c1.45,1.22,2.17,2.92,2.17,5.09.02,2.17-.7,3.87-2.15,5.09-1.45,1.22-3.27,1.83-5.45,1.83s-3.98-.61-5.44-1.83ZM118.07,330.66c0,1.09.33,1.95.98,2.59.65.64,1.5.97,2.53.97s1.87-.32,2.52-.97.97-1.51.97-2.59-.33-1.92-.98-2.57-1.49-.97-2.5-.99c-1.02,0-1.86.33-2.52.98s-.99,1.51-.99,2.58Z" style="fill:#fff;"/><path d="M138.21,334.22c1.75,0,2.62-1.04,2.62-3.13v-7.09h3.89v8.06c0,1.83-.59,3.21-1.78,4.13-1.19.92-2.76,1.39-4.73,1.39s-3.54-.46-4.73-1.39c-1.19-.92-1.78-2.3-1.78-4.13v-8.06h3.89v7.09c0,2.09.87,3.13,2.62,3.13Z" style="fill:#fff;"/><path d="M147.24,330.64c0-2.08.65-3.75,1.95-5.01s3-1.88,5.12-1.88c1.39,0,2.71.29,3.97.86l-1.12,3c-.69-.42-1.45-.64-2.26-.64-1.07,0-1.92.33-2.57.99-.64.66-.97,1.55-.97,2.67s.34,2.02,1.03,2.71c.69.69,1.61,1.02,2.76,1,.85,0,1.68-.19,2.49-.58l-.36,3.23c-.81.41-1.8.61-2.95.61-2.12,0-3.83-.64-5.14-1.91-1.31-1.27-1.96-2.96-1.96-5.06Z" style="fill:#fff;"/><path d="M160.28,337.33v-17.95h3.89v5.92c.95-1.03,2.22-1.55,3.81-1.55,1.69,0,3,.46,3.93,1.37.92.92,1.39,2.31,1.39,4.17v8.04h-3.89v-7.43c0-1.98-.84-2.97-2.52-2.97-.76,0-1.41.23-1.93.69-.53.46-.79,1.14-.79,2.06v7.65h-3.89Z" style="fill:#fff;"/><path d="M175.82,330.51c0-1.97.66-3.59,1.97-4.86,1.31-1.27,3.04-1.91,5.17-1.91,2.39,0,4.2.7,5.44,2.11,1.24,1.41,1.83,3.33,1.78,5.77h-10.07c.17,1.02.67,1.78,1.5,2.28.83.5,1.75.75,2.77.75,1.07,0,2.12-.24,3.15-.71l-.28,3c-1.03.42-2.31.64-3.81.64-2.27,0-4.11-.63-5.52-1.89-1.41-1.26-2.11-2.99-2.11-5.17ZM183.09,326.49c-.81,0-1.49.23-2.02.7-.53.47-.89,1.08-1.06,1.84h5.98c-.1-.8-.41-1.42-.93-1.87-.52-.45-1.17-.67-1.97-.67Z" style="fill:#fff;"/><path d="M201.1,324.03l-.74,3.41c-.41-.2-.92-.31-1.55-.31-.88,0-1.5.26-1.84.79-.35.53-.52,1.31-.52,2.34v7.07h-3.89v-7.98c0-1.93.56-3.35,1.68-4.25,1.12-.9,2.62-1.35,4.5-1.35.25,0,.54.02.85.05.31.03.63.08.94.14.31.06.5.09.57.09Z" style="fill:#fff;"/><path d="M215.06,337.33h-3.66v-17.95h6.7l3.15,10.71h.04s3.28-10.71,3.28-10.71h6.71v17.95h-4.22l.05-14.6h-.08s-4.4,14.6-4.4,14.6h-3.23l-4.3-14.6h-.1l.05,14.6Z" style="fill:#fff;"/><path d="M249.46,331.05v6.28h-3.81v-1.65c-1.14,1.24-2.65,1.86-4.55,1.86-2,0-3.65-.62-4.95-1.86s-1.95-2.87-1.95-4.91.7-3.73,2.1-5.05,3.23-1.97,5.5-1.97,4.24.66,5.61,1.98c1.36,1.32,2.05,3.09,2.05,5.31ZM244.31,333.23c.65-.66.98-1.52.98-2.57s-.33-1.91-.98-2.57-1.5-.99-2.56-.99-1.87.34-2.52,1.02-.97,1.53-.97,2.54.32,1.91.95,2.57,1.48.99,2.53.99,1.9-.33,2.56-.99Z" style="fill:#fff;"/><path d="M259.07,327.13c-1.75,0-2.62,1.04-2.62,3.13v7.07h-3.89v-8.04c0-1.85.6-3.23,1.79-4.16,1.2-.92,2.77-1.39,4.72-1.39s3.52.46,4.72,1.39c1.2.92,1.79,2.31,1.79,4.16v8.04h-3.89v-7.07c0-2.08-.87-3.13-2.62-3.13Z" style="fill:#fff;"/><path d="M283.36,331.05v6.28h-3.81v-1.65c-1.14,1.24-2.65,1.86-4.55,1.86-2,0-3.65-.62-4.95-1.86-1.3-1.24-1.94-2.87-1.94-4.91s.7-3.73,2.1-5.05c1.4-1.31,3.23-1.97,5.51-1.97s4.24.66,5.61,1.98c1.36,1.32,2.05,3.09,2.05,5.31ZM278.21,333.23c.65-.66.98-1.52.98-2.57s-.33-1.91-.98-2.57-1.5-.99-2.56-.99-1.87.34-2.52,1.02c-.65.68-.97,1.53-.97,2.54s.32,1.91.95,2.57,1.48.99,2.53.99,1.9-.33,2.56-.99Z" style="fill:#fff;"/><path d="M293.32,323.75c2.43,0,4.33.66,5.72,1.97,1.39,1.31,2.08,3.16,2.08,5.53v3c0,1.68-.15,3.04-.46,4.09s-1.01,2.27-2.11,3.66h-4.6c1.93-1.59,3.08-3.76,3.43-6.48-.46.68-1.11,1.18-1.94,1.51-.84.33-1.73.5-2.68.5-2.03,0-3.69-.63-4.97-1.88-1.28-1.25-1.92-2.9-1.92-4.93s.72-3.79,2.17-5.06c1.45-1.27,3.21-1.91,5.28-1.91ZM295.98,333.23c.65-.66.98-1.52.98-2.57s-.33-1.91-.98-2.57-1.5-.99-2.56-.99-1.85.33-2.51,1c-.65.67-.98,1.52-.98,2.56s.32,1.91.95,2.57,1.48.99,2.53.99,1.9-.33,2.56-.99Z" style="fill:#fff;"/><path d="M303.65,330.51c0-1.97.66-3.59,1.97-4.86,1.31-1.27,3.04-1.91,5.17-1.91,2.39,0,4.2.7,5.44,2.11,1.24,1.41,1.83,3.33,1.78,5.77h-10.07c.17,1.02.67,1.78,1.5,2.28.83.5,1.75.75,2.77.75,1.07,0,2.12-.24,3.15-.71l-.28,3c-1.03.42-2.31.64-3.81.64-2.27,0-4.11-.63-5.52-1.89-1.41-1.26-2.11-2.99-2.11-5.17ZM310.92,326.49c-.81,0-1.49.23-2.02.7-.53.47-.89,1.08-1.06,1.84h5.98c-.1-.8-.41-1.42-.93-1.87-.52-.45-1.18-.67-1.97-.67Z" style="fill:#fff;"/><path d="M330.98,326.72h.05c.34-1,.99-1.75,1.95-2.24.96-.49,2-.74,3.12-.74,1.75,0,3.12.47,4.12,1.41,1,.94,1.5,2.28,1.5,4.03v8.14h-3.89v-7.15c0-2.03-.81-3.05-2.42-3.05s-2.44.99-2.44,2.98v7.22h-3.81v-7.22c0-1.98-.82-2.98-2.47-2.98s-2.42,1.02-2.42,3.05v7.15h-3.89v-8.14c0-1.75.5-3.09,1.5-4.03,1-.94,2.38-1.41,4.14-1.41,1.1,0,2.12.25,3.05.74.93.49,1.57,1.24,1.91,2.24Z" style="fill:#fff;"/><path d="M344.26,330.51c0-1.97.66-3.59,1.97-4.86,1.31-1.27,3.04-1.91,5.17-1.91,2.39,0,4.2.7,5.44,2.11,1.24,1.41,1.83,3.33,1.78,5.77h-10.07c.17,1.02.67,1.78,1.5,2.28.83.5,1.75.75,2.77.75,1.07,0,2.12-.24,3.15-.71l-.28,3c-1.03.42-2.31.64-3.81.64-2.27,0-4.11-.63-5.52-1.89-1.41-1.26-2.11-2.99-2.11-5.17ZM351.53,326.49c-.81,0-1.49.23-2.02.7-.53.47-.89,1.08-1.06,1.84h5.98c-.1-.8-.41-1.42-.93-1.87-.52-.45-1.18-.67-1.97-.67Z" style="fill:#fff;"/><path d="M367.5,327.13c-1.75,0-2.62,1.04-2.62,3.13v7.07h-3.89v-8.04c0-1.85.6-3.23,1.79-4.16,1.2-.92,2.77-1.39,4.72-1.39s3.52.46,4.72,1.39c1.2.92,1.79,2.31,1.79,4.16v8.04h-3.89v-7.07c0-2.08-.87-3.13-2.62-3.13Z" style="fill:#fff;"/><path d="M376.91,330.13v-9.05l3.97-1.6v4.78h2.67l-.54,2.98h-2.19v3.05c0,2.39.85,4.74,2.54,7.04h-4.22c-.03-.05-.14-.24-.33-.56-.19-.32-.33-.57-.42-.74-.09-.17-.23-.44-.42-.8-.19-.36-.33-.71-.43-1.04-.1-.33-.21-.71-.32-1.14-.11-.43-.19-.89-.24-1.39-.05-.49-.08-1-.08-1.53Z" style="fill:#fff;"/><path d="M213.97,497.5c-.94,0-1.7-.76-1.7-1.7v-40.2c0-.47-.28-11.7-15.24-11.7-3.8,0-6.76,1.19-8.79,3.55-3.69,4.28-3.67,11.31-3.46,14.33h20.13c.94,0,1.7.76,1.7,1.7s-.76,1.7-1.7,1.7h-23.14l-.21-1.45c-.07-.48-1.67-11.8,4.11-18.5,2.71-3.14,6.53-4.73,11.36-4.73,18.43,0,18.65,14.95,18.65,15.1v40.2c0,.94-.76,1.7-1.7,1.7Z" style="fill:#fff;"/><path d="M239.61,580.44l-9.13-7.94-8.23,6.66-9.59-7.67v-16.97c0-.94.76-1.7,1.7-1.7s1.7.76,1.7,1.7v15.34l6.18,4.94,8.32-6.74,9,7.83,8.69-7.9,7.91,7.12,9.1-7.91,8.25,7.85,9.06-8.27,7.86,7.47,5.79-5.48v-108.82c-.02-.58-.51-15.17-11.02-15.84-12.01-.77-82.36,0-83.07,0h-.02c-.93,0-1.69-.75-1.7-1.68-.01-.94.74-1.71,1.68-1.72,2.9-.03,71.18-.78,83.32,0,10.89.7,14.05,12.86,14.2,19.2v110.32s-9.19,8.7-9.19,8.7l-7.9-7.51-9.07,8.28-8.3-7.91-9.03,7.85-7.86-7.07-8.65,7.86Z" style="fill:#fff;"/><path d="M282.14,467.55h-53.2c-.94,0-1.7-.76-1.7-1.7s.76-1.7,1.7-1.7h53.2c.94,0,1.7.76,1.7,1.7s-.76,1.7-1.7,1.7Z" style="fill:#fff;"/><path d="M267.24,484.92h-38.3c-.94,0-1.7-.76-1.7-1.7s.76-1.7,1.7-1.7h38.3c.94,0,1.7.76,1.7,1.7s-.76,1.7-1.7,1.7Z" style="fill:#fff;"/><path d="M274.99,501.75h-46.05c-.94,0-1.7-.76-1.7-1.7s.76-1.7,1.7-1.7h46.05c.94,0,1.7.76,1.7,1.7s-.76,1.7-1.7,1.7Z" style="fill:#fff;"/><path d="M201.52,549.6c-1.01,0-1.96-.37-2.67-1.06-.77-.74-1.2-1.79-1.19-2.88,0-.93-.5-1.8-1.36-2.33-.88-.54-1.93-.6-2.79-.15-.23.12-.48.33-.7.53-1.62,1.46-3.59,1.4-5.13-.14l-.57-.57c-.52-.52-1.04-1.04-1.55-1.56-1.68-1.71-1.68-4.02,0-5.76l.19-.2c.31-.32.63-.64.75-.9.32-.66.1-1.21-.06-1.48-.3-.5-.85-.81-1.47-.83-.24,0-.4-.02-.56,0-1.01.1-2.02-.24-2.78-.92-.75-.67-1.2-1.62-1.21-2.61-.02-1.2-.04-2.6.05-3.98.11-1.76,1.59-3.16,3.46-3.25h.34c.4-.03.77-.04,1.03-.12.72-.2,1.27-.78,1.48-1.55.21-.78.02-1.58-.52-2.13l-.27-.27c-.14-.14-.28-.28-.42-.42-1.54-1.63-1.56-4.09-.04-5.72.6-.65,1.26-1.31,1.97-1.97,1.57-1.48,3.97-1.5,5.59-.05.19.17.36.34.54.52l.23.23c.7.68,1.58.85,2.42.48.97-.44,1.39-1.07,1.42-2.11v-.23c0-.3,0-.67.08-1.08.36-1.66,1.83-2.84,3.57-2.88.41,0,.82,0,1.23,0h.52s.52,0,.52,0c.38,0,.77,0,1.15,0,2.08.04,3.67,1.64,3.7,3.72v.3c0,.35,0,.67.05.93.1.63.42.99,1.07,1.21.63.21,1.09.13,1.57-.3.16-.14.31-.3.46-.45.12-.12.24-.25.37-.37,1.6-1.53,3.9-1.54,5.48-.03.83.8,1.65,1.62,2.45,2.45.68.71,1.05,1.61,1.03,2.54-.02.91-.41,1.77-1.1,2.43-1.04.99-1.05,2.7-.02,3.91.54.63,1.2.94,2.08.96,2.35.05,3.86,1.6,3.85,3.95v.81c0,.89,0,1.81-.07,2.75-.14,1.86-1.68,3.25-3.59,3.25-.03,0-.07,0-.11,0-.82,0-1.3.11-1.69.38-.58.4-.93,1-1,1.68-.06.67.17,1.31.66,1.8,1.43,1.44,1.44,3.37.03,4.81-.94.96-1.89,1.9-2.83,2.84-1.46,1.45-3.35,1.46-4.81.02-.54-.53-1.23-.76-1.93-.67-.71.1-1.3.51-1.68,1.16-.18.31-.27.65-.27,1.07v.2c0,.31,0,.7-.08,1.13-.35,1.66-1.87,2.88-3.63,2.9-.4,0-.81,0-1.21,0-.6,0-1.21-.02-1.81.01-.07,0-.13,0-.2,0ZM194.75,539.47c1.15,0,2.3.32,3.33.96,1.88,1.16,2.99,3.12,2.98,5.25,0,.17.05.31.15.4.09.08.2.12.35.11.67-.03,1.34-.03,2.01-.02.38,0,.76,0,1.14,0,.18,0,.31-.11.33-.2.01-.06.01-.26,0-.39v-.27c0-1,.25-1.93.73-2.74.9-1.56,2.42-2.59,4.16-2.82,1.74-.24,3.48.35,4.77,1.62,0,0,0,0,.01.01,0,0,.01-.01.02-.02.94-.93,1.88-1.87,2.8-2.81,0,0,0,0,0,0,0,0-.02-.02-.03-.03-1.19-1.2-1.78-2.84-1.62-4.5.15-1.67,1.04-3.19,2.44-4.17,1.29-.9,2.68-.99,3.74-.99.05.01.2,0,.21-.11.06-.8.06-1.62.06-2.49v-.83c0-.34-.07-.45-.07-.45h0s-.11-.08-.45-.08c-1.84-.04-3.43-.78-4.6-2.15-2.21-2.58-2.09-6.35.27-8.58.04-.03.03-.07-.04-.14-.77-.8-1.56-1.59-2.36-2.36-.22-.21-.44-.29-.77.03-.11.1-.21.21-.31.31-.2.2-.4.4-.61.59-1.39,1.25-3.15,1.59-4.94.98-1.83-.63-3.01-2-3.32-3.87-.09-.53-.09-1.03-.09-1.47v-.27c0-.32-.2-.37-.36-.37-.36,0-.71,0-1.07,0h-.53s-.54,0-.54,0c-.39,0-.77,0-1.16,0-.15,0-.28.09-.31.21-.02.1,0,.21,0,.32,0,.12,0,.24,0,.36-.06,2.33-1.28,4.15-3.43,5.12-2.12.96-4.5.52-6.2-1.14l-.27-.28c-.12-.13-.25-.25-.38-.37-.3-.27-.7-.27-.99,0-.65.61-1.26,1.22-1.81,1.82-.29.32-.28.73.03,1.07.11.11.22.22.33.33.11.11.22.22.33.33,1.38,1.42,1.88,3.43,1.36,5.38-.52,1.93-1.95,3.41-3.84,3.94-.65.18-1.28.21-1.83.23h-.3c-.14.02-.24.09-.25.11-.06,1.22-.05,2.54-.03,3.68,0,.04.03.1.08.14.03.03.11.08.19.07.3-.03.6-.02.91-.01,1.84.05,3.44.97,4.35,2.47.87,1.44.95,3.21.21,4.73-.36.75-.9,1.3-1.38,1.78l-.18.18c-.43.45-.39.65-.02,1.02.51.52,1.02,1.03,1.53,1.54l.57.57c.12.12.2.17.23.19.01-.02.09-.06.22-.18.38-.34.84-.73,1.41-1.02.88-.46,1.84-.68,2.8-.68ZM214.85,541.49h0Z" style="fill:#fff;"/><path d="M203.05,537.23c-2.49,0-4.83-.86-6.73-2.5-2.22-1.92-3.52-4.64-3.58-7.48-.21-5.31,3.74-9.97,9-10.61,2.83-.35,5.57.41,7.72,2.11,2.17,1.73,3.58,4.27,3.87,6.97.61,5.68-3.3,10.7-8.89,11.42-.47.06-.94.09-1.4.09ZM203.11,519.95c-.31,0-.62.02-.96.06-3.52.43-6.16,3.55-6.01,7.12v.04c.03,1.85.93,3.72,2.4,4.99,1.5,1.3,3.44,1.88,5.47,1.61,3.28-.42,6.4-3.41,5.94-7.69-.19-1.78-1.17-3.52-2.61-4.67-.87-.69-2.28-1.46-4.24-1.46Z" style="fill:#fff;"/><rect x="227.9" y="540.15" width="3.4" height="13.74" style="fill:#fff;"/><rect x="232.62" y="540.15" width="3.4" height="13.74" style="fill:#fff;"/><rect x="238.14" y="540.15" width="3.4" height="13.74" style="fill:#fff;"/><rect x="242.86" y="540.15" width="3.4" height="13.74" style="fill:#fff;"/><rect x="248.76" y="540.15" width="3.4" height="13.74" style="fill:#fff;"/><rect x="253.49" y="540.15" width="3.4" height="13.74" style="fill:#fff;"/><rect x="258.61" y="540.15" width="3.4" height="13.74" style="fill:#fff;"/><rect x="263.33" y="540.15" width="3.4" height="13.74" style="fill:#fff;"/><rect x="268.44" y="540.15" width="3.4" height="13.74" style="fill:#fff;"/><rect x="273.46" y="540.15" width="3.4" height="13.74" style="fill:#fff;"/><rect x="278.83" y="540.15" width="3.4" height="13.74" style="fill:#fff;"/><path d="M267.24,520.68h-38.3c-.94,0-1.7-.76-1.7-1.7s.76-1.7,1.7-1.7h38.3c.94,0,1.7.76,1.7,1.7s-.76,1.7-1.7,1.7Z" style="fill:#fff;"/></svg>