<?xml version="1.0" encoding="utf-8"?>
<!-- Generator: Adobe Illustrator 27.1.1, SVG Export Plug-In . SVG Version: 6.00 Build 0)  -->
<svg version="1.1" id="LOGO" xmlns="http://www.w3.org/2000/svg" xmlns:xlink="http://www.w3.org/1999/xlink" x="0px" y="0px"
	 viewBox="0 0 39.9 50" style="enable-background:new 0 0 39.9 50;" xml:space="preserve">
<style type="text/css">
	.st0{fill:#89B081;}
	.st1{fill:#0E5876;}
	.st2{fill:#E53946;}
	.st3{fill:#115977;}
</style>
<g>
	<path class="st0" d="M9.4,0.3C4.2,0.3,0,4.5,0,9.7v9.4h2.1V9.7c0-4,3.3-7.3,7.3-7.3c4,0,7.3,3.3,7.3,7.3v9.4h2.1V9.7
		C18.9,4.5,14.6,0.3,9.4,0.3z"/>
	<path class="st1" d="M18.4,31.1v10.6h-1.3V31.1c0-2-1.6-3.5-3.5-3.5S10,29.1,10,31.1v10.6H8.7V31.1c0-2-1.6-3.5-3.5-3.5
		s-3.5,1.6-3.5,3.5v10.6H0.3V31.1c0-2.7,2.2-4.8,4.8-4.8c1.8,0,3.4,1,4.2,2.4c0.8-1.4,2.4-2.4,4.2-2.4
		C16.2,26.2,18.4,28.4,18.4,31.1z"/>
	<path class="st1" d="M39.9,37.5c0,2.3-1.9,4.2-4.2,4.2H24.4v-1.3h11.3c1.6,0,2.9-1.3,2.9-2.9c0-1.6-1.3-2.9-2.9-2.9H24.4v-1.3
		c0,0,5,0,8.3,0c1.7,0,2.9,0,2.9,0c1.6,0,2.9-1.3,2.9-2.9c0-1.6-1.3-2.9-2.9-2.9H24.4v-1.3h11.3c2.3,0,4.2,1.9,4.2,4.2
		c0,1.5-0.8,2.8-2,3.5C39.1,34.7,39.9,36,39.9,37.5z"/>
	<path class="st1" d="M38.6,11.1c0,3.5-2.9,6.4-6.4,6.4s-6.4-2.9-6.4-6.4V6.9h6.4V5.6h-6.4V3.4h-1.3v2.2v1.3v4.2
		c0,4.3,3.5,7.7,7.7,7.7s7.7-3.5,7.7-7.7H38.6z"/>
	<g>
		<circle class="st2" cx="32.3" cy="47.5" r="2.2"/>
		<circle class="st1" cx="26.6" cy="47.5" r="2.2"/>
		<circle class="st0" cx="37.7" cy="47.5" r="2.2"/>
	</g>
	<g>
		<path class="st3" d="M16,45.6h2.3v-0.4H16c-1.3,0-2.3,1-2.3,2.3c0,1.2,1.1,2.3,2.3,2.3h2.3v-0.4H16c-1,0-1.8-0.7-1.9-1.7h2v-0.4
			h-2C14.2,46.3,15,45.6,16,45.6"/>
		<path class="st3" d="M8.6,45.6h2.3v-0.4H8.6c-1.3,0-2.3,1-2.3,2.3c0,1.2,1.1,2.3,2.3,2.3h2.3v-0.4H8.6c-1,0-1.8-0.7-1.9-1.7h2
			v-0.4h-2C6.7,46.3,7.6,45.6,8.6,45.6"/>
		<path class="st3" d="M2.7,45.2H5v0.4H2.7c-1.1,0-2,0.8-2,1.9c0,1,0.9,1.9,2,1.9h2v-1.7H3.4v-0.4H5v2.5H2.7c-1.3,0-2.4-1-2.4-2.3
			C0.3,46.2,1.4,45.2,2.7,45.2"/>
		<rect x="12.1" y="45.2" class="st3" width="0.4" height="4.5"/>
	</g>
</g>
</svg>
