<?xml version="1.0" encoding="UTF-8"?><svg id="Layer_1" xmlns="http://www.w3.org/2000/svg" viewBox="0 0 286.96 195.57"><path d="M189.96,195.57H31.03c-17.11,0-31.03-11.91-31.03-26.55V26.55C0,11.91,13.92,0,31.03,0h157.68c9.8,0,19.13,4.01,24.94,10.72l67.27,77.74c8.62,9.96,7.97,23.96-1.55,33.3l-66.01,64.74c-5.88,5.77-14.4,9.08-23.39,9.08ZM31.03,11c-11.04,0-20.03,6.97-20.03,15.55v142.48c0,8.57,8.98,15.55,20.03,15.55h158.94c6.13,0,11.84-2.16,15.69-5.93l66.01-64.74c5.41-5.31,5.79-12.64.93-18.24L205.33,17.92c-3.75-4.33-9.96-6.92-16.62-6.92H31.03Z" style="fill:#5c6f8a;"/></svg>