<?xml version="1.0" encoding="UTF-8"?><svg id="Layer_1" xmlns="http://www.w3.org/2000/svg" viewBox="0 0 528.02 162.56"><path d="M341.92,162.56c-1.22-.18-2.43-.42-3.66-.53-14.79-1.26-28.23-6.21-40.19-14.97-16.89-12.37-27.4-28.91-31.74-49.37-.07-.31-.08-.63-.13-1.06.18.11.3.14.35.22,1.8,3.12,4.66,4.42,8.09,4.67,1.51.11,3.03.07,4.54.08,5.55,0,11.1,0,16.66,0h1.69c.53-3.26,1.03-6.37,1.57-9.66-.67-.04-1.19-.09-1.72-.09-5.64,0-11.29-.07-16.93.02-3.66.06-4.81-1.67-5-4.48-.14-2.01-.03-4.03-.03-6.05,0-.12.09-.25.21-.53.49,0,1.04,0,1.58,0,5.05,0,10.09,0,15.14,0,.37,0,.73,0,1.1-.01.5,0,.75-.27.83-.74.46-2.8.92-5.59,1.42-8.56-1.39-.14-2.71-.06-4.02-.07-1.33-.01-2.66,0-3.99,0h-12.27c-.04-3.37-.01-6.6-.02-10.02,3.8-.05,7.5-.02,11.19-.02,3.71,0,7.41,0,11.22,0,.51-3.25.99-6.36,1.46-9.38-.09-.13-.11-.17-.14-.2-.03-.03-.07-.06-.11-.08-.09-.03-.18-.05-.27-.06-.09-.01-.18-.01-.27-.01-9.08-.01-18.17-.02-27.25-.04-.04,0-.09-.02-.32-.09.17-.45.32-.9.5-1.33,5.79-13.28,14.52-24.24,26.18-32.85,10.2-7.54,21.6-12.34,34.09-14.49,6.81-1.17,13.68-1.54,20.56-.82,25.76,2.71,45.59,15.07,59.41,36.92,5.98,9.46,9.59,19.84,11.19,30.92.23,1.59.38,3.18.57,4.77.05.39.15.78.43,1.16.08-.33.16-.66.24-.98,1.2-5.09,4.32-8.38,9.3-9.9,3.61-1.1,7.29-1.29,11.02-.69.85.14,1.7.3,2.75.49-.66,3.08-1.3,6.05-1.95,9.12-.97-.19-1.84-.47-2.73-.52-1.22-.07-2.48-.09-3.67.11-1.68.28-2.88,1.34-3.6,2.9-.6,1.31-.86,2.71-.87,4.14-.03,3.03-.03,6.05-.04,9.08,0,3.44,0,6.88,0,10.31,0,.49-.05.99-.08,1.64-3.68,0-7.24,0-10.81,0,.04-.5.11-1,.11-1.5.01-4.9.01-9.81,0-14.71,0-2.52.09-5.05-.06-7.56-.35-5.65-3.06-9.76-8.29-12.13-2.24-1.01-4.61-1.52-7.04-1.73-3.87-.34-7.7-.08-11.39,1.26-4.67,1.7-7.87,4.82-9.02,9.73-.36,1.54-.47,3.17-.48,4.77-.05,6.83-.02,13.66-.02,20.48,0,.44.05.89.09,1.48,3.64,0,7.18.03,10.84-.02,0-.74,0-1.28,0-1.82,0-5.73-.01-11.46.01-17.19,0-1.09.07-2.2.23-3.28.58-3.85,2.77-5.88,6.66-5.98,3.88-.1,6.53,1.5,7.28,5.91.18,1.08.24,2.19.24,3.28.02,5.77.01,11.55.01,17.32,0,.54,0,1.08,0,1.71.65.03,1.14.07,1.63.07,2.57,0,5.14,0,7.71,0,.5,0,1-.08,1.49-.12-1.79,6.95-4.32,13.62-7.94,19.83-11.93,20.45-29.39,33.51-52.46,39.05-4.29,1.03-8.66,1.49-13.03,1.92-.49.05-.98.19-1.46.29h-6.61ZM330.66,67.55c-1.54-.87-2.87-1.77-4.31-2.41-3.46-1.53-7.11-1.68-10.79-1.07-6.44,1.07-11.33,4.32-14.09,10.37-1.37,3.01-1.9,6.22-1.7,9.52.46,7.67,4.07,13.32,11.14,16.47,5.73,2.55,11.68,2.54,17.6.68,5.97-1.88,9.89-5.91,11.86-11.85.89-2.68,1.24-5.45,1.25-8.25.03-9.3.02-18.61.01-27.91,0-.44-.05-.89-.08-1.35h-10.89v15.8ZM384.84,85.82c.06-.45.13-.75.13-1.06.05-2.91-.32-5.77-1.23-8.53-1.93-5.86-5.8-9.79-11.77-11.51-4.55-1.31-9.16-1.38-13.71-.05-6.13,1.8-10.37,5.68-12.42,11.8-.76,2.28-1,4.64-.94,7.05.2,8.67,5.29,15.32,13.61,17.76,4.3,1.26,8.68,1.35,13.07.66,1.4-.22,2.76-.64,4.14-.97.79-.19,1.23-.58,1.27-1.5.05-1.32.29-2.64.43-3.96.12-1.12.2-2.25.32-3.58-.65.24-1.11.41-1.57.59-2.71,1.09-5.52,1.71-8.45,1.5-3.1-.22-5.94-1.13-8.2-3.38-1.3-1.29-2.12-2.84-2.44-4.83h27.77Z" style="fill:#fff;"/><path d="M90.57,0c.49.22.96.48,1.46.67,28.39,10.87,56.78,21.74,85.17,32.6.3.11.61.21.9.34,1.34.58,1.81,1.36,1.57,2.83-.22,1.4-.52,2.79-.78,4.19-.51,2.74-1.01,5.49-1.55,8.23-.46,2.32-1.45,2.89-3.72,2.19-13.62-4.15-27.23-8.31-40.84-12.46-6.39-1.95-12.78-3.9-19.18-5.85-.39-.12-.79-.25-1.19-.32-1.63-.27-2.8.61-2.94,2.26-.18,2.05-.31,4.11-.44,6.17-.32,5.21-.61,10.43-.94,15.64-.5,7.96-1.02,15.91-1.53,23.87-.3,4.76-.59,9.51-.88,14.27-.44,7-.88,13.99-1.32,20.99-.31,4.94-.6,9.88-.91,14.82-.37,5.99-.74,11.98-1.12,17.97-.11,1.73-.95,2.52-2.76,2.53-2.8.02-5.6,0-8.39,0-3.49,0-6.97,0-10.46,0-2.2,0-2.92-.74-3.06-2.95-.51-8.28-1.05-16.55-1.57-24.83-.32-5.12-.6-10.24-.93-15.37-.41-6.58-.85-13.17-1.27-19.75-.31-4.89-.59-9.79-.9-14.68-.43-6.86-.88-13.72-1.31-20.57-.31-5.03-.61-10.06-.92-15.09-.06-1.01-.12-2.01-.22-3.02-.16-1.65-1.32-2.53-2.95-2.26-.4.07-.8.2-1.19.32-18.43,5.62-36.86,11.24-55.29,16.86-1.66.51-3.32,1.02-4.99,1.52-1.94.57-3.01-.04-3.39-2-.74-3.77-1.42-7.56-2.16-11.33C.5,37.28.2,36.8,0,36.31c0-.37,0-.73,0-1.1.84-.81,1.69-1.53,2.85-1.97C31.25,22.41,59.63,11.54,88.01.67,88.51.48,88.99.22,89.47,0c.37,0,.73,0,1.1,0Z" style="fill:#fff;"/><path d="M528.02,84.44c-.1.3-.26.58-.29.89-.92,8.52-6.76,14.82-15.22,16.36-4.44.8-8.87.8-13.16-.74-7.5-2.68-11.73-7.99-12.63-15.93-.32-2.78-.05-5.51.75-8.16,2.07-6.86,6.77-10.92,13.7-12.45,3.4-.75,6.82-.77,10.2.24,1.91.57,3.66,1.43,5.2,2.71.21.17.43.32.83.62.22-1.46.09-2.77.12-4.07.02-1.33,0-2.66,0-3.99v-3.99c0-1.32,0-2.65,0-4.15,3.58-.03,7.04-.06,10.51-.09v32.73ZM517.39,83.07c0-5.5-3.23-9.24-8.69-9.86-4.16-.47-8.66,1.24-10.35,6.14-.28.82-.46,1.69-.54,2.54-.4,3.94,1.15,8.67,6.04,10.48,2.26.84,4.57.86,6.89.17,4.19-1.25,6.66-4.77,6.66-9.48Z" style="fill:#fff;"/><path d="M148.51,150.94c-2.39,0-4.77.01-7.16,0-2.12-.01-3.02-1.03-2.77-3.12.96-8.05,1.94-16.1,2.9-24.15.07-.59.12-1.19.18-1.78.16-1.53-.38-2.4-1.88-2.91-1.08-.37-2.22-.61-3.26-1.05-1.5-.64-3.27.57-3.39,2.17-.17,2.14-.5,4.27-.76,6.41-.61,5.14-1.23,10.28-1.84,15.42-.23,1.91-.44,3.82-.67,5.73-.06.5-.12,1-.23,1.49-.21,1.02-.92,1.55-1.89,1.75-.35.07-.73.05-1.1.05-5.09,0-10.18,0-15.28,0-.23,0-.46.01-.69,0-1.54-.11-2.47-1.07-2.38-2.61.26-4.57.56-9.15.86-13.72.23-3.52.47-7.04.69-10.56.45-7.04.89-14.08,1.33-21.13.31-4.98.6-9.97.91-14.96.42-6.72.86-13.44,1.28-20.17.21-3.38.41-6.77.62-10.15.17-2.65.31-5.31.53-7.95.4-4.83,4.96-8.08,9.64-6.73,4.97,1.43,9.87,3.08,14.81,4.64,8.47,2.68,16.94,5.34,25.4,8.04,4.88,1.56,7.88,4.84,8.86,9.89.35,1.78.12,3.56-.21,5.32-2.56,13.73-5.12,27.46-7.68,41.19-2.27,12.15-4.54,24.3-6.82,36.46-.34,1.83-1.04,2.43-2.88,2.44-2.39.02-4.77,0-7.16,0ZM147.43,73.35c.04-1.47-.47-2.27-1.71-2.7-1.17-.4-2.35-.77-3.55-1.08-1.78-.46-2.94.34-3.27,2.14-.05.27-.11.54-.14.81-.61,5.23-1.23,10.46-1.82,15.7-.17,1.48.36,2.33,1.78,2.86,1.03.39,2.07.74,3.11,1.08,2.03.67,3.34-.12,3.61-2.22.45-3.54.88-7.09,1.3-10.64.25-2.05.47-4.1.68-5.96Z" style="fill:#fff;"/><path d="M45.41,150.94c-4.77,0-9.54,0-14.31,0-1.62,0-3.21-.24-4.69-.9-3.36-1.5-5.54-4.06-6.27-7.67-1.07-5.3-2.02-10.62-3.01-15.93-1.89-10.13-3.77-20.26-5.66-30.39-1.79-9.63-3.58-19.27-5.38-28.9-.32-1.71-.64-3.42-.97-5.13-.04-.22-.09-.45-.12-.68-.21-1.72.24-2.47,1.89-3,4.62-1.48,9.25-2.93,13.88-4.4,1.27-.4,2.53-.82,3.8-1.2,1.85-.55,2.96.08,3.3,1.98.64,3.61,1.2,7.23,1.79,10.84,1.35,8.22,2.7,16.45,4.04,24.67,1.33,8.14,2.65,16.27,3.97,24.41.48,2.94.94,5.88,1.44,8.81.31,1.84,1.14,2.52,2.99,2.54.73.01,1.47.03,2.2-.01,1.61-.1,2.62-1.26,2.44-2.85-.66-5.87-1.34-11.74-2.01-17.61-.5-4.41-.98-8.83-1.48-13.25-.6-5.33-1.21-10.65-1.81-15.98-.5-4.46-1-8.92-1.5-13.38-.42-3.69-.83-7.37-1.26-11.06-.33-2.82-.33-3.56,2.77-4.51,6.52-2,13.01-4.09,19.52-6.15.26-.08.52-.17.79-.24,1.73-.48,2.98.38,3.13,2.19.09,1.05.16,2.1.22,3.15.31,5.17.61,10.34.93,15.51.41,6.54.85,13.08,1.26,19.62.32,5.03.6,10.06.92,15.09.42,6.72.86,13.44,1.28,20.17.21,3.25.4,6.49.6,9.74.26,4.12.48,8.23.79,12.35.41,5.55-2.77,10.35-7.93,11.71-1.09.29-2.26.4-3.4.41-4.73.04-9.45.02-14.18.02Z" style="fill:#fff;"/><path d="M457.36,85.69c.05,1.5.61,2.65,1.33,3.7,1.69,2.5,4.16,3.81,7.03,4.43,3.55.77,7.01.33,10.39-.97.55-.21,1.1-.41,1.83-.68-.14,1.5-.25,2.85-.38,4.21-.09.96-.22,1.91-.28,2.87-.06.87-.4,1.38-1.3,1.65-3.51,1.05-7.09,1.42-10.73,1.26-2.71-.12-5.38-.56-7.92-1.56-6.62-2.61-10.5-7.43-11.59-14.47-.51-3.27-.37-6.5.68-9.64,2.04-6.13,6.32-9.98,12.47-11.73,4.42-1.26,8.9-1.18,13.31.06,6.21,1.74,10.11,5.86,11.97,11.97.73,2.38,1,4.84,1.1,7.32.02.45,0,.9,0,1.49-.65.04-1.18.09-1.71.09-8.17,0-16.33,0-24.5,0h-1.68ZM473.54,78.54c0-2.61-1.56-5.12-3.96-6.24-2.79-1.3-5.61-1.27-8.33.19-2.36,1.26-3.62,3.35-4.28,6.05h16.57Z" style="fill:#fff;"/><path d="M221.65,87.89c0-21.09,0-42.17,0-63.26,0-.5-.03-1.01.04-1.51.11-.87.85-1.51,1.68-1.54.87-.03,1.66.65,1.78,1.59.05.36.03.73.03,1.1,0,42.4,0,84.81,0,127.21,0,.37.02.74-.02,1.1-.11.94-.87,1.62-1.76,1.61-.89-.01-1.62-.7-1.72-1.65-.05-.45-.02-.92-.02-1.37,0-21.09,0-42.17,0-63.26Z" style="fill:#fff;"/><path d="M330.56,83.02c0,4.75-2.55,8.29-6.82,9.47-1.9.52-3.8.54-5.69.03-4.07-1.09-6.74-4.55-6.82-9.06-.02-1.35.17-2.76.59-4.04,1.4-4.3,5.18-6.31,9.66-6.08.99.05,2.01.25,2.95.56,3.84,1.27,6.14,4.72,6.14,9.13Z" style="fill:#fff;"/><path d="M356.9,78.34c.68-3.75,3.72-6.5,7.39-6.77,1.67-.12,3.3.05,4.81.82,2.39,1.22,3.63,3.22,4.01,5.95h-16.21Z" style="fill:#fff;"/></svg>