<?xml version="1.0" encoding="UTF-8"?><svg id="Layer_1" xmlns="http://www.w3.org/2000/svg" viewBox="0 0 287 202.27"><path d="M67.06,180.53c0,2.97.06,5.63-.01,8.29-.22,7.61-5.11,12.7-12.67,12.83-8.86.16-17.74.18-26.6,0-7.35-.15-12.21-5.3-12.22-12.73-.04-22.59-.1-45.18.03-67.76.06-10.33,3.8-19.4,10.55-27.23,1.38-1.6,2.73-3.21,4.46-5.24-7.08-2.15-13.64-4.03-20.12-6.16-5.61-1.85-8.86-5.93-9.75-11.73-.84-5.45.67-10.4,5.23-13.55,2.62-1.81,6.07-3.02,9.25-3.29,6-.51,12.08-.18,18.13-.14,6.63.04,11.01,3.61,14.24,9.83,4.05-7.82,7.85-15.16,11.65-22.49,3.52-6.79,6.86-13.7,10.63-20.35,4.48-7.91,11.51-12.68,20.33-14.58,35.15-7.57,70.34-7.59,105.55-.28,11.23,2.33,18.86,8.92,23.9,19.09,6.31,12.74,12.94,25.33,19.62,38.36.91-1.26,1.59-2.16,2.22-3.1,2.93-4.37,7.1-6.44,12.29-6.48,5.91-.05,11.82-.08,17.73,0,8.07.11,13.64,4.9,14.83,12.6,1.13,7.32-3.14,14.01-10.62,16.39-6.24,1.98-12.53,3.81-18.68,5.68,3.48,5.15,7.55,9.67,9.84,14.96,2.4,5.53,4.21,11.78,4.34,17.76.49,22.58.23,45.17.19,67.76-.01,7.52-4.74,12.53-12.22,12.68-8.86.18-17.74.16-26.6,0-7.6-.13-12.4-5.15-12.6-12.86-.07-2.65-.01-5.31-.01-8.24H67.06ZM229.23,179.96c0,2.8.11,5.06-.03,7.31-.24,3.82,1.46,5.31,5.25,5.24,7.39-.15,14.78-.04,22.17-.06,5.11-.01,5.7-.61,5.71-5.88.02-17.35-.82-34.75.24-52.03,1.06-17.35-3.53-31.77-16.44-43.44-.2-.18-.36-.4-.54-.6-3.73-4.26-2.75-7.47,2.76-9.12,7.97-2.38,15.94-4.79,23.91-7.17,3.18-.95,5.32-2.8,4.9-6.35-.42-3.58-2.95-4.91-6.28-4.93-5.38-.04-10.75.02-16.13-.03-3.21-.03-5.36,1.4-6.56,4.35-1.27,3.11-2.41,6.28-3.89,9.29-1.81,3.72-6.01,3.89-8.36.48-.3-.44-.56-.92-.8-1.4-7.68-14.93-15.65-29.72-22.93-44.85-4.54-9.43-11.35-14.65-21.62-16.56-31.27-5.83-62.44-5.84-93.73-.1-10.57,1.94-17.59,7.18-22.24,16.95-7.15,15.04-15.04,29.72-22.86,44.43-.91,1.71-3.34,3.68-5,3.62-1.62-.06-3.55-2.31-4.65-4.04-1.41-2.24-2.16-4.9-3.13-7.41-1.27-3.26-3.51-4.88-7.09-4.79-4.97.12-9.94,0-14.92.04-3.47.03-6.64.83-7.15,4.93-.5,4.04,2.21,5.61,5.63,6.6,7.87,2.27,15.7,4.66,23.53,7.03,5.15,1.56,6.02,4.83,2.42,8.99-2.55,2.94-5.1,5.9-7.69,8.81-5.27,5.91-8.79,12.76-8.89,20.69-.27,22.86-.16,45.72-.18,68.58,0,2.65,1.43,3.91,4.05,3.91,8.33-.01,16.67.1,24.99-.15,1.32-.04,3.52-1.55,3.71-2.65.51-3.06.18-6.27.18-9.71-3.22,0-5.89.01-8.56,0-2.87-.01-4.74-1.46-4.82-4.3-.09-2.98,1.66-4.71,4.75-4.82,1.07-.04,2.15-.02,3.22-.02,60.87,0,121.75,0,182.62,0,1.07,0,2.15-.01,3.22.02,3.1.1,4.84,1.84,4.76,4.82-.07,2.85-2,4.27-4.83,4.3-2.67.03-5.34,0-8.73,0Z" style="fill:#5c6f8a; stroke:#5c6f8a; stroke-miterlimit:10;"/><path d="M143.53,85.22c-25.39,0-50.78,0-76.17,0-.94,0-1.88.01-2.82,0-6.26-.09-8.18-2.87-5.49-8.45,5.81-12.1,11.8-24.12,17.72-36.17.36-.72.82-1.41,1.07-2.17,3.69-11.27,11.88-16.02,23.22-18.18,30.14-5.75,60.03-5.58,89.94,1.21,7.31,1.66,12.64,5.28,15.93,12.18,6.83,14.3,13.98,28.44,20.87,42.7,2.95,6.1,1.1,8.88-5.67,8.88-26.2.02-52.39,0-78.59,0ZM70.09,75.35h146.98c-6.86-13.8-13.37-27.17-20.23-40.36-.9-1.72-3.44-3.14-5.47-3.62-7.43-1.75-14.91-3.41-22.47-4.44-24.34-3.32-48.46-1.9-72.32,4.01-3.83.95-6.37,3.04-8.04,6.6-3.15,6.68-6.52,13.25-9.76,19.89-2.86,5.86-5.69,11.74-8.68,17.93Z" style="fill:#5c6f8a; stroke:#5c6f8a; stroke-miterlimit:10;"/><path d="M249.83,120.94c-.07,11.19-9.15,20.13-20.35,20.05-11.12-.08-20.25-9.24-20.22-20.29.03-11.28,9.29-20.34,20.67-20.22,11.19.12,19.98,9.16,19.91,20.46ZM229.64,131.62c6.24-.02,10.92-4.7,10.93-10.93,0-6.09-4.91-11.04-10.95-11.04-6.03,0-10.96,4.97-10.96,11.05,0,6.16,4.8,10.93,10.99,10.91Z" style="fill:#5c6f8a; stroke:#5c6f8a; stroke-miterlimit:10;"/><path d="M37.18,120.5c.06-11.22,9.07-20.09,20.33-20.01,11.19.08,20.22,9.12,20.22,20.24,0,11.07-9.13,20.2-20.24,20.26-11.38.06-20.36-9.01-20.31-20.49ZM57.2,131.62c6.25.05,11.08-4.61,11.14-10.75.07-6.12-4.76-11.13-10.8-11.22-5.97-.09-11.09,4.9-11.17,10.88-.08,6.17,4.68,11.04,10.82,11.08Z" style="fill:#5c6f8a; stroke:#5c6f8a; stroke-miterlimit:10;"/><path d="M143.06,155.38c-13.57,0-27.14,0-40.71,0-1.21,0-2.77.39-3.54-.21-1.52-1.18-3.46-2.86-3.6-4.48-.11-1.29,2-3.04,3.47-4.11.82-.6,2.34-.28,3.55-.28,27.41-.01,54.81-.01,82.22,0,5.27,0,7.62,1.4,7.64,4.49.02,3.18-2.28,4.6-7.51,4.6-13.84,0-27.68,0-41.51,0Z" style="fill:#5c6f8a; stroke:#5c6f8a; stroke-miterlimit:10;"/></svg>