<?xml version="1.0" encoding="UTF-8"?><svg id="Layer_1" xmlns="http://www.w3.org/2000/svg" viewBox="0 0 291 227.77"><path d="M276.41,227.77H14.59c-8.05,0-14.59-6.55-14.59-14.59V14.59C0,6.55,6.55,0,14.59,0h261.82c8.05,0,14.59,6.55,14.59,14.59v198.59c0,8.04-6.54,14.59-14.59,14.59ZM14.59,11c-1.98,0-3.59,1.61-3.59,3.59v198.59c0,1.98,1.61,3.59,3.59,3.59h261.82c1.98,0,3.59-1.61,3.59-3.59V14.59c0-1.98-1.61-3.59-3.59-3.59H14.59Z" style="fill:#5c6f8a;"/><rect x="59.69" y="63.23" width="153.55" height="11" style="fill:#5c6f8a;"/><rect x="61.06" y="119.22" width="11" height="51.21" style="fill:#5c6f8a;"/><rect x="87.88" y="119.22" width="11" height="51.21" style="fill:#5c6f8a;"/><rect x="114.71" y="119.22" width="11" height="51.21" style="fill:#5c6f8a;"/><rect x="141.54" y="119.22" width="11" height="51.21" style="fill:#5c6f8a;"/><rect x="162.4" y="119.22" width="11" height="51.21" style="fill:#5c6f8a;"/><rect x="183.26" y="119.22" width="11" height="51.21" style="fill:#5c6f8a;"/></svg>